<svg xmlns="http://www.w3.org/2000/svg" width="326" height="279" version="1.2"><defs><linearGradient id="P" gradientUnits="userSpaceOnUse"/><linearGradient id="g1" x1="2.9" x2="2.9" y1="-13" y2="-8.2" href="#P"><stop stop-color="#454545"/><stop offset=".2" stop-color="#999"/><stop offset="1" stop-color="#fff"/></linearGradient><linearGradient id="g2" x1="3.3" x2="3.3" y1="182.5" y2="178.2" href="#P"><stop stop-color="#454545"/><stop offset=".2" stop-color="#999"/><stop offset="1" stop-color="#fff"/></linearGradient><linearGradient id="g3" x1="82.4" x2="82.4" y1="181.7" y2="184.5" href="#P"><stop stop-color="#fff" stop-opacity="0"/><stop offset="1" stop-color="#fff" stop-opacity=".6"/></linearGradient><linearGradient id="g4" x1="99.8" x2="96.1" y1="20" y2="20" href="#P"><stop/><stop offset=".2" stop-color="#bababa"/><stop offset=".5" stop-color="#000108"/><stop offset="1" stop-color="#060606"/></linearGradient><linearGradient id="g5" x1="0" x2="3.7" y1="20" y2="20" href="#P"><stop/><stop offset=".2" stop-color="#bababa"/><stop offset=".5" stop-color="#000108"/><stop offset="1" stop-color="#060606"/></linearGradient><linearGradient id="g6" x1="-40" x2="-26.1" y1="5" y2="53" href="#P"><stop stop-color="#33d35e"/><stop offset="1" stop-color="#2ab6d9"/></linearGradient><linearGradient id="g7" x1="-29.6" x2="-10.1" y1="40.1" y2="92.2" href="#P"><stop stop-color="#33d35e"/><stop offset="1" stop-color="#2ab6d9"/></linearGradient><linearGradient id="g8" x1="30.6" x2="40.3" y1="164.1" y2="180.9" href="#P"><stop stop-color="#33d35e"/><stop offset="1" stop-color="#2ab6d9"/></linearGradient><linearGradient id="g9" x1="116.3" x2="116.3" y1="72.8" y2="68.4" href="#P"><stop stop-color="#454545"/><stop offset=".2" stop-color="#999"/><stop offset="1" stop-color="#fff"/></linearGradient><linearGradient id="g10" x1="195.4" x2="195.4" y1="72" y2="74.7" href="#P"><stop stop-color="#fff" stop-opacity="0"/><stop offset="1" stop-color="#fff" stop-opacity=".6"/></linearGradient><linearGradient id="g11" x1="212.8" x2="209.1" y1="-89.1" y2="-89.1" href="#P"><stop/><stop offset=".2" stop-color="#bababa"/><stop offset=".5" stop-color="#000108"/><stop offset="1" stop-color="#060606"/></linearGradient><linearGradient id="g12" x1="113" x2="116.7" y1="-89.1" y2="-89.1" href="#P"><stop/><stop offset=".2" stop-color="#bababa"/><stop offset=".5" stop-color="#000108"/><stop offset="1" stop-color="#060606"/></linearGradient><linearGradient id="g13" x1="83.4" x2="102.8" y1="42.3" y2="94.3" href="#P"><stop stop-color="#33d35e"/><stop offset="1" stop-color="#2ab6d9"/></linearGradient><linearGradient id="g14" x1="143.6" x2="153.2" y1="14.7" y2="31.4" href="#P"><stop stop-color="#33d35e"/><stop offset="1" stop-color="#2ab6d9"/></linearGradient><linearGradient id="g15" x1="228.9" x2="228.9" y1="-13" y2="-8.2" href="#P"><stop stop-color="#454545"/><stop offset=".2" stop-color="#999"/><stop offset="1" stop-color="#fff"/></linearGradient><linearGradient id="g16" x1="229.3" x2="229.3" y1="181.8" y2="177.4" href="#P"><stop stop-color="#454545"/><stop offset=".2" stop-color="#999"/><stop offset="1" stop-color="#fff"/></linearGradient><linearGradient id="g17" x1="308.4" x2="308.4" y1="181" y2="183.7" href="#P"><stop stop-color="#fff" stop-opacity="0"/><stop offset="1" stop-color="#fff" stop-opacity=".6"/></linearGradient><linearGradient id="g18" x1="325.8" x2="322.1" y1="19.9" y2="19.9" href="#P"><stop/><stop offset=".2" stop-color="#bababa"/><stop offset=".5" stop-color="#000108"/><stop offset="1" stop-color="#060606"/></linearGradient><linearGradient id="g19" x1="226" x2="229.7" y1="19.9" y2="19.9" href="#P"><stop/><stop offset=".2" stop-color="#bababa"/><stop offset=".5" stop-color="#000108"/><stop offset="1" stop-color="#060606"/></linearGradient><linearGradient id="g20" x1="186" x2="217.8" y1="12.8" y2="81.3" href="#P"><stop stop-color="#33d35e"/><stop offset="1" stop-color="#2ab6d9"/></linearGradient><linearGradient id="g21" x1="256.6" x2="266.2" y1="163.4" y2="180.1" href="#P"><stop stop-color="#33d35e"/><stop offset="1" stop-color="#2ab6d9"/></linearGradient><linearGradient id="g22" x1="115.9" x2="115.9" y1="84" y2="88.8" href="#P"><stop stop-color="#454545"/><stop offset=".2" stop-color="#999"/><stop offset="1" stop-color="#fff"/></linearGradient><linearGradient id="g23" x1="116.3" x2="116.3" y1="279.5" y2="275.2" href="#P"><stop stop-color="#454545"/><stop offset=".2" stop-color="#999"/><stop offset="1" stop-color="#fff"/></linearGradient><linearGradient id="g24" x1="195.4" x2="195.4" y1="278.7" y2="281.5" href="#P"><stop stop-color="#fff" stop-opacity="0"/><stop offset="1" stop-color="#fff" stop-opacity=".6"/></linearGradient><linearGradient id="g25" x1="212.8" x2="209.1" y1="117" y2="117" href="#P"><stop/><stop offset=".2" stop-color="#bababa"/><stop offset=".5" stop-color="#000108"/><stop offset="1" stop-color="#060606"/></linearGradient><linearGradient id="g26" x1="113" x2="116.7" y1="117" y2="117" href="#P"><stop/><stop offset=".2" stop-color="#bababa"/><stop offset=".5" stop-color="#000108"/><stop offset="1" stop-color="#060606"/></linearGradient><linearGradient id="g27" x1="73" x2="217.1" y1="179.4" y2="250.9" href="#P"><stop stop-color="#33d35e"/><stop offset="1" stop-color="#2ab6d9"/></linearGradient><clipPath id="cp1" clipPathUnits="userSpaceOnUse"><path d="M44.27-5.17c1.19 2.92 3.53 3.79 4.42 3.79h2.18c1.87 0 3.59-1.68 4.44-3.79.85-2.1 2.86-2.94 2.97-2.96h29.29c4.03.03 7.44 2.64 7.44 7.28v164.94c0 5.01-5.05 9.51-10.33 9.51H15.19c-5.48 0-10.32-4.47-10.32-9.51V-1.3c0-3.87 3.13-6.83 7.44-6.83h28.83c.11.02 1.95.05 3.13 2.96z"/></clipPath><clipPath id="cp2" clipPathUnits="userSpaceOnUse"><path d="M157.26-114.2c1.18 2.91 3.53 3.78 4.42 3.78h2.17c1.88 0 3.59-1.68 4.44-3.78.84-2.1 2.86-2.93 2.97-2.95h29.28c4.03.03 7.43 2.63 7.43 7.25V54.39c0 4.99-5.04 9.47-10.32 9.47h-69.46c-5.48 0-10.32-4.45-10.32-9.47v-164.73c0-3.86 3.13-6.81 7.43-6.81h28.83c.11.02 1.94.05 3.13 2.95z"/></clipPath><clipPath id="cp3" clipPathUnits="userSpaceOnUse"><path d="M270.26-5.2c1.18 2.91 3.53 3.78 4.42 3.78h2.17c1.88 0 3.59-1.68 4.44-3.78.84-2.1 2.86-2.93 2.97-2.95h29.28c4.03.03 7.43 2.63 7.43 7.25v164.29c0 4.99-5.04 9.47-10.32 9.47h-69.46c-5.48 0-10.32-4.45-10.32-9.47V-1.34c0-3.86 3.13-6.81 7.43-6.81h28.83c.11.02 1.94.05 3.13 2.95z"/></clipPath><clipPath id="cp4" clipPathUnits="userSpaceOnUse"><path d="M157.27 91.83c1.19 2.92 3.53 3.79 4.42 3.79h2.18c1.87 0 3.59-1.68 4.44-3.79.85-2.1 2.86-2.94 2.97-2.96h29.29c4.03.03 7.44 2.64 7.44 7.28v164.94c0 5.01-5.05 9.51-10.33 9.51h-69.49c-5.48 0-10.32-4.47-10.32-9.51V95.7c0-3.87 3.13-6.83 7.44-6.83h28.83c.11.02 1.95.05 3.13 2.96z"/></clipPath></defs><style>.a{fill:#000105}.g{fill:#181819}.h{fill:#1e1939}.i{fill:#342b64}.j{fill:#51439f}.k{opacity:.3;fill:#fff}.l{fill:#e3ecf6}.m{fill:#f7f7f7}.o{fill:#fff}.p{fill:#9597a5}.q{fill:#2d314d}.t,.u{opacity:.5;fill:#fff}.u{opacity:.1}</style><path fill-rule="evenodd" d="M12.9-12.8H87c7.1 0 12.9 5.6 12.9 12.5v170.4c0 6.9-5.8 12.5-12.9 12.5H12.9C5.8 182.6 0 177 0 170.1V-.3c0-6.9 5.8-12.5 12.9-12.5z" class="a"/><path fill-rule="evenodd" d="M96.9-8.2c-1.9-1.6-5.2-3.9-9.7-3.9H12.6c-4.4 0-7.8 2.3-9.7 3.9q4.4-4.5 9.7-4.8h74.7q5.2.3 9.6 4.8z" style="opacity:.4;fill:url(#g1)"/><path fill-rule="evenodd" d="M87.3 182.5H12.6c-3.7-.1-6.8-1.4-9.3-4 1.9 1.5 4.9 3.2 9.3 3.2h74.6c4.5 0 7.7-2 9.6-3.5-2.6 2.8-5.8 4.2-9.5 4.3z" style="opacity:.5;fill:url(#g2)"/><path fill-rule="evenodd" d="M3.9 178.9c2.1 1.7 4.8 2.7 7.8 2.7H89c2.6 0 5-.7 7-2.1-2.2 2-5.2 3.3-8.4 3.3H12.9c-3.6 0-6.8-1.5-9-3.9z" style="opacity:.6;fill:url(#g3)"/><path fill-rule="evenodd" d="M97.8 168.2V.7c0-4.5-1.6-6.2-2.6-7.2-.9-1.1-1-1.6.4-.8s4.2 3.1 4.2 8v167.5c0 4.8-2.8 7.2-4.2 8-1.4.8-1.3.2-.4-.8 1-1.1 2.6-2.7 2.6-7.2z" style="opacity:.7;fill:url(#g4)"/><path fill-rule="evenodd" d="M4.6 175.4c1 1 1 1.6-.4.8S0 173 0 168.2V.7c0-4.9 2.8-7.2 4.2-8 1.4-.8 1.4-.3.4.8C3.6-5.5 2-3.8 2 .7v167.5c0 4.5 1.6 6.1 2.6 7.2z" style="opacity:.7;fill:url(#g5)"/><path d="M49.8-3.9c-1 0-1.9-.8-1.9-1.8s.9-1.8 1.9-1.8c1.1 0 1.9.8 1.9 1.8s-.8 1.8-1.9 1.8z" class="g"/><path d="M49.8-3.9c-1 0-1.9-.8-1.9-1.8s.9-1.8 1.9-1.8c1.1 0 1.9.8 1.9 1.8s-.8 1.8-1.9 1.8z" style="opacity:.5"/><g style="opacity:.7"><path d="M49.8-4.3c-.8 0-1.4-.7-1.4-1.4 0-.8.6-1.4 1.4-1.4.8 0 1.5.6 1.5 1.4 0 .7-.7 1.4-1.5 1.4z" class="h"/><path d="M49.8-4.8c-.5 0-.9-.4-.9-.9s.4-.9.9-.9.9.4.9.9-.4.9-.9.9z" class="i"/><path d="M49.8-5.3c-.2 0-.4-.2-.4-.4s.2-.4.4-.4.4.2.4.4-.2.4-.4.4z" class="j"/><path d="M49.4-5.8c-.1 0-.2-.1-.2-.3 0-.1.1-.2.2-.2.2 0 .3.1.3.2 0 .2-.1.3-.3.3z" class="k"/></g><path fill-rule="evenodd" d="M44.3-5.2c1.2 2.9 3.5 3.8 4.4 3.8h2.2c1.8 0 3.6-1.7 4.4-3.8.9-2.1 2.9-2.9 3-2.9h29.3c4 0 7.4 2.6 7.4 7.2v165c0 5-5 9.5-10.3 9.5H15.2c-5.5 0-10.3-4.5-10.3-9.5V-1.3c0-3.9 3.1-6.8 7.4-6.8h28.8c.2 0 2 0 3.2 2.9z" class="l"/><g clip-path="url(#cp1)"><path d="M4.9-8H95v181.6H4.9z" class="m"/><path d="M4.9-8H95v26.1H4.9z" style="fill:url(#g6)"/><path d="M10.1 66.5c0-2.2 1.8-4 4-4h71.7c2.2 0 4 1.8 4 4v14.4c0 2.2-1.8 4-4 4H14.1c-2.2 0-4-1.8-4-4z" class="o"/><path fill-rule="evenodd" d="M33.4 69.8v1.1h-.3v-2.4h.3v1q.1-.1.1-.2.1 0 .2-.1h.2q.2 0 .3.1.2 0 .2.1.1.2.1.3v1.2h-.3v-1.1q0-.2-.1-.2-.1-.1-.3-.1h-.2q-.1 0-.1.1-.1.1-.1.2zm-2.1 1q-.3-.2-.4-.4-.1-.3-.1-.7 0-.4.1-.6.1-.3.4-.4.2-.2.5-.2t.5.1q.2.1.3.3.1.2.1.4h-.3q-.1-.1-.1-.3-.1-.1-.2-.1-.1-.1-.3-.1-.2 0-.3.1-.2.1-.2.3-.1.2-.1.5 0 .5.1.7.2.2.5.2h.3l.2-.2q0-.1.1-.3h.3q0 .2-.1.3 0 .2-.1.3-.1.1-.3.2h-.4q-.3 0-.5-.1zm-14.8-.5-.3.6h-.3l.8-2.4h.4l.9 2.4h-.4l-.2-.6zm.1-.3h.7l-.4-1.1zm2 .9q-.2-.1-.3-.3-.1-.2-.1-.5t.1-.5q.1-.2.3-.3.2-.1.4-.1t.3.1q.2.1.3.2.1.1.1.3h-.3q0-.1-.1-.2l-.1-.1H19q-.2 0-.3.1-.1.2-.1.5t.1.4q.1.2.3.2h.2q.1-.1.1-.2.1 0 .1-.1h.3q0 .2-.1.3-.1.1-.3.2-.1.1-.3.1-.2 0-.4-.1zm2.4 0q-.1.1-.3.1-.2 0-.4-.1t-.3-.3q-.1-.2-.1-.5t.1-.5q.1-.2.3-.3.2-.1.4-.1t.3.1q.2.1.3.2.1.1.1.3h-.3q0-.1-.1-.2l-.1-.1h-.2q-.2 0-.3.1-.1.2-.1.5t.1.4q.1.2.3.2h.2q.1-.1.1-.2.1 0 .1-.1h.3q0 .2-.1.3-.1.1-.3.2zm1 0q-.2-.1-.3-.3-.1-.2-.1-.5t.1-.5q.1-.2.3-.3.2-.1.4-.1t.4.1q.2.1.3.3.1.2.1.5 0 .2-.1.4t-.3.3q-.1.2-.4.2-.2 0-.4-.1zm.1-.3q.1.1.3.1.1 0 .2-.1l.2-.2v-.6q0-.2-.1-.2-.1-.1-.3-.1h-.2q-.1.1-.2.3v.6q.1.1.1.2zm1.7.3q-.1 0-.2-.1 0-.1-.1-.2t-.1-.2v-1.2h.4v1.1q0 .2.1.3.1.1.3.1.1 0 .2-.1.2-.1.2-.3v-1.1h.3v1.7h-.3v-.3q0 .1-.1.2t-.2.1-.2.1q-.1 0-.3-.1zm1.9-1.1v1.1h-.4v-1.7h.4v.3q0-.1.1-.1 0-.1.1-.1.1-.1.3-.1.1 0 .3.1.1 0 .2.2.1.1.1.3v1.1h-.4v-1q0-.2-.1-.3-.1-.1-.2-.1h-.2q-.1.1-.2.1v.2zm1.7 1.1q-.1-.1-.1-.2-.1-.1-.1-.2v-1H27v-.3h.3v-.5h.3v.5h.4v.3h-.4v1.1q0 .1.1.1H28v.2H27.4zm2.3-2.3v2.3h-.3v-1.8h-.5v-.2q.2 0 .3-.1.2 0 .2-.1.1 0 .1-.1zm5.6 2.3-.3-.3q-.1-.2-.1-.5t.1-.5q.1-.2.3-.3.1-.1.4-.1.2 0 .4.1.1.1.2.3.1.2.1.4v.2h-1.2q0 .1.1.2 0 .2.1.2.1.1.3.1.1 0 .2-.1.2 0 .2-.2h.3q0 .2-.1.3-.1.1-.3.2-.1.1-.3.1-.2 0-.4-.1zm-.1-1h.9q0-.1-.1-.2 0-.1-.1-.2h-.5q-.1.1-.1.2-.1.1-.1.2zm1.8 1q-.1-.1-.2-.3-.1-.2-.1-.5t.1-.5q0-.2.2-.3.2-.1.4-.1t.4.1l.2.2q.1.1.1.3h-.3v-.2q-.1 0-.2-.1h-.2q-.2 0-.3.1-.1.2-.1.5t.1.4q.1.2.3.2h.2l.2-.2v-.1h.3q0 .2-.1.3l-.2.2q-.2.1-.4.1t-.4-.1zm1.8-.5v.5h-.3v-2.4h.3V70l.7-.8h.4l-.6.7.7 1h-.4l-.5-.8zm1.5-1.5v-.3h.3v.3zm.4.3v1.7h-.4v-1.7zm.5 1.7v-1.7h.3v.3l.2-.2.1-.1h.3q.1 0 .2.1.2 0 .3.2V70.9h-.3v-1.1q0-.1-.1-.2t-.3-.1h-.1q-.1.1-.2.1-.1.1-.1.2v1.1zm3.2.4q-.2.2-.6.2-.4 0-.6-.1-.2-.2-.2-.4v-.1q0-.1.1-.1l.1-.1h.1l-.1-.1h-.1v-.1q0-.1.1-.2 0-.1.2-.1-.2-.1-.2-.2-.1-.1-.1-.3 0-.1.1-.3.1-.1.2-.1.2-.1.4-.1h.3q.1.1.2.1h.2q.1-.1.2-.1h.1v.3h-.3v.2q0 .2-.1.3 0 .1-.2.2t-.4.1H43.5q-.1 0-.1.1h.1q.1 0 .2.1h.4q.3 0 .4.1.2.1.2.3 0 .3-.3.4zm-.3-1.3q.1-.1.1-.3 0-.1-.1-.2t-.3-.1q-.2 0-.3.1-.1.1-.1.2 0 .2.1.3.1.1.3.1.2 0 .3-.1zm-.7 1.2q.2.1.5.1.2 0 .3-.1.1-.1.1-.2t-.1-.2H44l-.4-.1q-.1 0-.2.1l-.1.1v.1q0 .1.1.2z" class="p"/><path fill-rule="evenodd" d="M18.1 78.4v.6h-.6v-.6h-.1q-.4-.1-.8-.3-.4-.3-.5-.9h.7q.1.3.3.5.3.2.7.2.3 0 .5-.1t.3-.2q.1-.2.1-.4 0-.3-.1-.4-.2-.2-.6-.3l-.7-.2q-.5-.1-.8-.3-.3-.3-.3-.8 0-.4.2-.7.2-.2.6-.4l.1-.1h.4l.1-.1v-.6h.5v.6l.1.1q.2 0 .4.1.4.2.5.5.2.2.2.6h-.6q-.1-.4-.3-.5-.2-.2-.6-.2h-.3q-.2.1-.3.1-.1.1-.2.3-.1.1-.1.3 0 .2.2.3.1.1.5.3l.8.2q.5.1.8.4.2.4.2.8t-.2.6q-.2.3-.5.5h-.1q-.2.1-.4.1zm4.4-.1q-.3.1-.9.1-.5 0-.8-.1-.4-.2-.6-.5-.2-.3-.2-.6t.1-.5q.1-.3.3-.4.2-.2.4-.2-.3-.2-.5-.4-.1-.2-.1-.6 0-.4.1-.6.2-.3.6-.5.3-.1.7-.1.5 0 .8.1.3.2.5.5.2.2.2.6 0 .4-.1.6-.2.2-.5.4.2 0 .4.2.2.1.3.4.1.2.1.5t-.2.6q-.2.3-.6.5zm-.2-2.7q.2-.2.2-.5t-.2-.5q-.3-.2-.7-.2-.3 0-.6.2-.2.2-.2.5t.2.5q.3.2.6.2.4 0 .7-.2zm-1.4 2.1q.3.2.7.2.5 0 .8-.2.2-.2.2-.6 0-.2-.1-.4-.1-.1-.3-.2-.2-.1-.6-.1-.3 0-.5.1t-.3.2q-.1.2-.1.4 0 .4.2.6zm3.7.6-.6-.4q-.2-.3-.2-.7h.6q.1.3.3.5.2.2.5.2.4 0 .7-.2.2-.2.4-.6.1-.4.1-1-.1.2-.3.4-.1.1-.3.2-.3.1-.5.1-.5 0-.8-.2-.3-.1-.5-.5-.2-.3-.2-.7 0-.4.2-.8.2-.3.5-.5.4-.2.8-.2.6 0 .9.3.4.2.6.7.2.5.2 1.2t-.2 1.3q-.2.5-.6.7-.4.3-.9.3-.4 0-.7-.1zm.1-2.3q.2.3.7.3.2 0 .4-.1t.3-.3q.2-.2.2-.4 0-.3-.2-.6-.1-.2-.3-.3-.2-.2-.5-.2-.2 0-.4.1-.2.2-.3.4-.1.2-.1.5 0 .4.2.6zm3.6 2.3q-.4-.2-.6-.4-.2-.3-.2-.7h.6q.1.3.3.5.2.2.5.2.4 0 .7-.2.2-.2.4-.6.1-.4.1-1-.1.2-.3.4-.1.1-.4.2-.2.1-.4.1-.5 0-.8-.2-.3-.1-.5-.5-.2-.3-.2-.7 0-.4.2-.8.2-.3.5-.5.4-.2.8-.2.5 0 .9.3.4.2.6.7.2.5.2 1.2t-.2 1.3q-.2.5-.6.7-.4.3-.9.3-.4 0-.7-.1zm.1-2.3q.2.3.6.3.3 0 .5-.1t.3-.3q.1-.2.1-.4 0-.3-.1-.6-.1-.2-.3-.3-.2-.2-.5-.2-.2 0-.4.1-.2.2-.3.4-.1.2-.1.5 0 .4.2.6zm2.8 2.3v-.7h.8v.7zm2.7-4.3v4.3h-.6v-3.4h-.8v-.4h.6q.2-.1.3-.2.1-.2.1-.3zm2.9 4.3v-1h-2v-.6l2-2.7h.7v2.7h.7v.6h-.7v1zm-1.5-1.6h1.5v-1.9z" class="q"/><path d="M10.1 29.2c0-2.2 1.8-4 4-4h71.7c2.2 0 4 1.8 4 4v21.9c0 2.2-1.8 4-4 4H14.1c-2.2 0-4-1.8-4-4z" style="fill:url(#g7)"/><path fill-rule="evenodd" d="M23 38.3h-.4l-.1-.1q-.1-.1-.1-.2v-2.2h.4V38h.2v.3zm-6.4 0v-2.1h-.8v-.3h1.8v.3h-.7v2.1zm1.4-.1q-.2-.1-.3-.3-.1-.2-.1-.5 0-.2.1-.4t.3-.3q.1-.1.4-.1.2 0 .4.1t.3.3q.1.2.1.4 0 .3-.1.5t-.3.3q-.2.1-.4.1t-.4-.1zm.1-.2h.5q.1-.1.2-.3v-.6l-.2-.2q-.1-.1-.2-.1-.2 0-.3.1-.1.1-.1.2-.1.1-.1.3 0 .2.1.3 0 .2.1.3zm1.7.2q-.1 0-.2-.1v-1.3h-.3v-.2h.3l.1-.5h.3v.5h.3v.2H20V38H20.3v.3h-.2q-.2 0-.3-.1zm1.7 0q-.2.1-.4.1-.1 0-.2-.1-.2 0-.2-.1-.1-.1-.1-.3 0-.3.2-.4.2-.1.6-.2h.3v-.1q0-.1-.1-.2t-.3-.1q-.1 0-.2.1-.1 0-.1.2h-.3q0-.2.1-.3l.2-.2h.7q.2.1.3.2v1.5h-.3V38q-.1.2-.2.2zm-.1-.2h.2q0-.1.1-.2v-.4h-.2q-.2 0-.3.1-.1 0-.2.1t-.1.2q0 .1.1.2t.3.1l.1-.1zm3.1.2q-.2-.2-.4-.5-.1-.2-.1-.6 0-.4.1-.7l.4-.4q.2-.1.5-.1t.5.1q.2.1.3.3.1.1.1.4h-.3q0-.2-.1-.3l-.2-.2H25q-.2 0-.3.1-.1.1-.2.3-.1.2-.1.5 0 .5.2.7.1.2.4.2.2 0 .3-.1.1 0 .2-.1.1-.2.1-.3h.3v.3q-.1.2-.2.3-.1.1-.3.1-.1.1-.4.1-.3 0-.5-.1zm2.1-1v1.1h-.3v-2.5h.3v1q.1 0 .1-.1.1-.1.2-.1h.5q.2.1.3.2v1.5h-.3v-1.2q0-.1-.1-.2t-.3-.1q-.1 0-.2.1l-.1.1q-.1.1-.1.2zm1.8 1q-.2-.1-.3-.3-.1-.2-.1-.5 0-.2.1-.4t.3-.3q.2-.1.4-.1.3 0 .4.1.2.1.3.3.1.1.1.4v.1h-1.2v.3l.2.2h.5q.1-.1.1-.2h.4q-.1.1-.2.3-.1.1-.2.1-.2.1-.3.1-.3 0-.5-.1zm0-.9h.8V37q0-.1-.1-.1-.1-.1-.3-.1-.1 0-.2.1l-.2.2v.2zm1.8.9q-.2-.1-.3-.3-.1-.2-.1-.5 0-.2.1-.4t.3-.3q.2-.1.4-.1h.3q.2.1.3.2.1.2.1.3H31l-.1-.1q0-.1-.1-.1-.1-.1-.2-.1-.2 0-.3.2-.2.1-.2.4 0 .3.2.5.1.1.3.1h.2q.1 0 .1-.1.1-.1.1-.2h.3q0 .2-.1.3-.1.2-.3.2-.1.1-.3.1-.2 0-.4-.1zm1.8-.4v.5h-.4v-2.5h.4v1.6l.7-.8h.4l-.6.6.6 1.1h-.3l-.5-.8zm1.4-1.6v-.3h.4v.3zm.3.4v1.7h-.3v-1.7zm.5 1.7v-1.7h.3v.2q0-.1.1-.1.1-.1.2-.1h.5l.2.2q.1.1.1.4v1.1h-.3v-1.1q0-.2-.1-.3-.1-.1-.3-.1-.1 0-.2.1-.1 0-.1.1-.1 0-.1.1v1.2zm3.2.4q-.2.1-.6.1-.4 0-.7-.1-.2-.1-.2-.3 0-.1.1-.2l.1-.1h.1V38q-.1 0-.1-.1-.1 0-.1-.1t.1-.1q.1-.1.3-.1-.2-.1-.3-.2-.1-.2-.1-.3 0-.2.1-.3.1-.1.3-.2.2-.1.4-.1.1 0 .3.1.1 0 .2.1h.1q0-.1.1-.1l.1-.1h.1v.3l-.3.1.1.1v.1q0 .1-.1.3-.1.1-.2.1-.2.1-.4.1h-.4v.2H37q.3 0 .5.2.1.1.1.3 0 .2-.2.4zm-.4-1.4q.1-.1.1-.2 0-.2-.1-.3h-.5q-.1.1-.1.3 0 .1.1.2t.3.1q.1 0 .2-.1zm-.6 1.2q.1.1.4.1.2 0 .4-.1.1 0 .1-.2l-.1-.1q-.1-.1-.2-.1h-.6l-.1.1v.1q0 .2.1.2zM19.4 47.7v.8h-.9v-.8h-.2q-.7-.1-1.2-.5-.7-.4-.8-1.4h1q.2.5.6.8.4.3 1 .3.4 0 .7-.2.3-.1.5-.3.2-.3.2-.6 0-.4-.2-.6-.3-.3-.8-.4l-1.2-.3q-.7-.2-1.2-.6-.4-.4-.4-1.1 0-.6.3-1.1.3-.4.9-.7h.1q.3-.2.7-.2v-.9h.9v.9h.2l.6.2q.5.3.8.7.3.5.3 1h-1q-.1-.5-.4-.8-.3-.3-.9-.3-.3 0-.6.1-.2 0-.4.2-.2.1-.3.3-.1.2-.1.5t.2.5q.2.2.9.4l1.1.3q.8.2 1.2.7.4.5.4 1.2 0 .6-.3 1t-.9.7h-.1q-.3.1-.7.2zm7.6-1v.9h-4.6v-.9q0-.5.2-.9.2-.3.5-.6t.7-.5q.3-.2.7-.4.4-.2.7-.5.3-.2.5-.4.2-.3.2-.7 0-.5-.3-.8-.4-.3-.9-.3-.7 0-1 .4-.4.3-.5.9h-1q.1-.6.3-1.1.3-.5.8-.7.6-.3 1.4-.3.7 0 1.2.2t.8.7q.3.4.3 1 0 .5-.2.9t-.5.6q-.3.3-.7.5-.4.2-.7.4-.4.2-.7.4-.3.2-.5.5-.2.2-.2.6v.1zm.7 2.1.5-1.2h-.4v-1.1H29v.9l-.9 1.4zm6.2-1.3q-.6.2-1.4.2-.8 0-1.3-.2-.6-.3-.9-.7-.4-.5-.4-1 0-.4.2-.8.2-.3.5-.6.3-.2.7-.3-.5-.2-.8-.6-.3-.3-.3-.9 0-.6.3-1t.9-.6q.5-.2 1.1-.2.7 0 1.2.2t.8.6q.3.4.3 1t-.3.9q-.3.4-.7.6.3.1.6.3.3.3.5.6.2.4.2.8 0 .5-.3 1-.3.4-.9.7zm-.4-4.1q.3-.3.3-.8t-.3-.8q-.4-.3-1-.3-.5 0-.9.3t-.4.8q0 .5.4.8.4.3.9.3.6 0 1-.3zm-2.1 3.2q.4.3 1.1.3.7 0 1.1-.3.5-.3.5-.9 0-.3-.2-.6t-.6-.4q-.3-.2-.8-.2-.4 0-.8.2-.3.1-.5.4-.2.3-.2.6 0 .6.4.9zm5.7 1v-5.3h-1.3v-.6q.6 0 1-.1.3-.1.5-.3.1-.2.1-.4h.7v6.7zm6.7-.8q-.7.9-1.8.9t-1.8-.9q-.7-.9-.7-2.6 0-1.1.3-1.9.3-.7.9-1.1.5-.4 1.3-.4 1.1 0 1.8.8.6.9.6 2.6 0 1.7-.6 2.6zm-.8-.6q.4-.6.4-2t-.4-2q-.3-.6-1-.6t-1 .6q-.4.6-.4 2t.4 2q.3.6 1 .6t1-.6zm3.4.2v1.2h-1.2v-1.2zm2.4 1.1q-.6-.2-1-.6-.3-.4-.5-.9l.8-.4q.2.4.4.7l.6.4q.3.2.8.2.6 0 1.1-.4.4-.4.4-1.1 0-.4-.2-.7-.2-.3-.5-.5-.4-.2-.8-.2-.2 0-.5.1-.2 0-.4.1-.2.2-.5.4h-.1l-.8-.3.3-3.4H52v.8h-3.3l-.1 2q.3-.3.7-.4.4-.1.8-.1.7 0 1.2.2.5.3.8.8.3.5.3 1.2t-.3 1.2q-.3.5-.9.8-.5.3-1.3.3-.6 0-1.1-.2zm8.3-.1q-.5.3-1.3.3-.6 0-1.2-.2-.5-.2-.9-.6-.4-.4-.6-.9l.9-.4q.1.4.4.7.2.2.6.4.3.2.7.2.7 0 1.1-.4.4-.4.4-1.1 0-.4-.1-.7-.2-.3-.6-.5-.3-.2-.7-.2-.3 0-.5.1-.2 0-.4.1-.2.2-.5.4h-.1l-.8-.3.3-3.4h4.1v.8h-3.3l-.1 2q.3-.3.7-.4.4-.1.8-.1.6 0 1.2.2.5.3.8.8.3.5.3 1.2t-.3 1.2q-.3.5-.9.8z" class="o"/><path d="M10.1 92.6c0-2.2 1.8-4 4-4h71.7c2.2 0 4 1.8 4 4V107c0 2.2-1.8 4-4 4H14.1c-2.2 0-4-1.8-4-4z" class="o"/><path fill-rule="evenodd" d="M28.9 97v-.6l.2-.2.2-.2q.2-.1.3-.2.1 0 .3-.1.1-.1.1-.2.1-.1.1-.2 0-.2-.1-.3-.1-.1-.3-.1-.3 0-.4.1-.1.2-.1.4h-.4q0-.2.1-.4t.3-.3q.2-.1.5-.1.2 0 .4.1t.3.2q.1.2.1.4t-.1.3l-.2.2-.2.2q-.1.1-.3.1l-.2.2q-.1.1-.2.1-.1.1-.1.3h1.3v.3zm-13 0 .8-2.4h.4L18 97h-.4l-.2-.6h-.9l-.3.6zm1.1-2-.4 1.1h.8zm2.3 1.9q-.2.1-.4.1t-.4-.1q-.1-.1-.2-.3-.1-.2-.1-.4v-.5q.1-.2.3-.3.2-.1.4-.1h.4q.1.1.2.3.1.1.1.3h-.3v-.2q-.1-.1-.2-.1-.1-.1-.2-.1-.2 0-.3.2-.1.1-.1.4 0 .3.1.5t.3.2q.2 0 .2-.1.1 0 .2-.1v-.1h.3q0 .1-.1.2-.1.2-.2.2zm.9 0q-.1-.1-.2-.3-.1-.2-.1-.4v-.5q.1-.2.3-.3.2-.1.4-.1h.4q.1.1.2.3.1.1.1.3H21v-.2q-.1-.1-.2-.1-.1-.1-.2-.1-.2 0-.3.2-.1.1-.1.4 0 .3.1.5t.3.2q.2 0 .2-.1.1 0 .2-.1v-.1h.3q0 .1-.1.2-.1.2-.2.2-.2.1-.4.1t-.4-.1zm2.6 0q-.2.1-.5.1-.2 0-.4-.1t-.2-.3q-.1-.2-.1-.4v-.5q.1-.2.3-.3.2-.1.4-.1.3 0 .4.1.2.1.3.3.1.2.1.5 0 .2-.1.4t-.2.3zm-.2-.2q.1-.1.1-.2.1-.2.1-.4 0-.1-.1-.3 0-.1-.1-.2t-.3-.1q-.1 0-.2.1l-.2.2v.6q.1.2.2.3.1.1.2.1.2 0 .3-.1zm1.6.3h-.4q-.1-.1-.2-.1l-.2-.2v-1.4h.3v1.1q0 .2.1.3.1.1.3.1.2 0 .3-.1.1-.1.1-.3v-1.1h.3V97h-.2l-.1-.3q0 .1-.1.2t-.2.1zm1 0v-1.7h.4v.2l.1-.1q.1 0 .2-.1h.5l.2.2q.1.2.1.4V97h-.4v-1.1q0-.2-.1-.2-.1-.1-.2-.1h-.2q-.1 0-.2.1V97zm2.6 0h-.2q-.2 0-.3-.1-.1 0-.1-.1-.1-.1-.1-.2v-1h-.2v-.3h.2l.1-.5h.3v.5h.3v.3h-.3v1.1h.4v.3h-.1zm5-.1q-.2.1-.4.1H32q-.1-.1-.2-.1-.2-.1-.3-.3 0-.1-.1-.3h.4q0 .2.1.3.1 0 .2.1h.5q.2 0 .2-.1.1-.1.1-.2v-.2q-.1-.1-.2-.1-.1-.1-.2-.1l-.4-.1q-.3-.1-.4-.2-.2-.2-.2-.4t.1-.4q.1-.1.3-.2.2-.1.5-.1.2 0 .4.1t.3.3q.1.1.1.3h-.3q0-.2-.1-.2l-.2-.2h-.4q-.1 0-.2.1-.1 0-.1.1v.4q.1 0 .3.1l.5.1q.2 0 .3.1l.2.2v.2q.1.1.1.2 0 .2-.1.3l-.4.2zm1 .1-.2-.2q-.1-.1-.1-.3 0-.3.2-.4.2-.1.7-.1h.2v-.4q-.1-.1-.3-.1-.1 0-.2.1-.2 0-.2.2h-.3q0-.2.1-.3l.2-.2h.8l.2.2q.1.1.1.3V97h-.3v-.3q-.1.2-.3.2-.1.1-.3.1h-.3zm.2-.3q.1.1.2.1h.2q0-.1.1-.1l.1-.1v-.4h-.5q-.1 0-.2.1v.2q0 .1.1.2zm1.8.3-.6-1.7h.3l.4 1.2h.1l.4-1.2h.3l-.6 1.7zm1.5-2.4v.4H37v-.4zm-.4 2.4v-1.7h.4V97zm1.1-1.1V97h-.3v-1.7h.3v.2l.1-.1q.1 0 .2-.1h.5l.2.2q.1.2.1.4V97h-.3v-1.1q0-.2-.1-.2-.1-.1-.3-.1h-.2q-.1 0-.1.1-.1.1-.1.2zm1.6 1.5q-.2-.1-.2-.3V97l.1-.1.1-.1h.1l-.1-.1-.1-.1v-.1l.1-.1q.1-.1.2-.1l-.2-.2q-.1-.1-.1-.3 0-.2.1-.3.1-.1.3-.2h.6q.1.1.2.1h.1q.1 0 .1-.1h.2l.1-.1v.3l-.3.1v.5q-.1.1-.3.2h-.5q-.2 0-.2.1h-.1q0 .1.1.1h.4q.1 0 .2.1.3 0 .4.1.2.1.2.3 0 .3-.2.4-.2.1-.7.1-.4 0-.6-.1zm.3-1.3h.6q.1-.1.1-.3 0-.1-.1-.2t-.3-.1q-.1 0-.2.1-.2.1-.2.2 0 .2.1.3zm.7 1.2q.1-.1.1-.2v-.2h-.3l-.4-.1q-.1 0-.1.1h-.1q-.1.1-.1.2t.2.2h.7zm1.8-.3h-.7q-.1-.1-.3-.2-.1-.1-.1-.3h.3l.1.1q.1.1.2.1 0 .1.1.1.2 0 .3-.1.1 0 .1-.2 0-.1-.1-.1 0-.1-.1-.1l-.4-.1q-.2 0-.3-.1-.1-.1-.1-.3v-.3q.1-.1.3-.2h.3q.3 0 .5.1t.2.4h-.3q0-.1-.1-.2t-.3-.1q-.1 0-.2.1-.1 0-.1.2l.1.1.2.1.3.1h.2q.1.1.1.2.1 0 .1.1v.1q0 .2-.1.3l-.2.2z" class="p"/><path fill-rule="evenodd" d="M18.1 104.5v.6h-.6v-.6h-.1q-.4-.1-.8-.3-.4-.3-.5-.9h.7q.1.3.3.5.3.2.7.2.3 0 .5-.1t.3-.2q.1-.2.1-.4 0-.3-.1-.4-.2-.2-.6-.3l-.7-.1q-.5-.2-.8-.4-.3-.3-.3-.8 0-.4.2-.7.2-.2.6-.4l.1-.1h.4l.1-.1v-.6h.5v.7h.1q.2 0 .4.1.4.2.5.5.2.2.2.6h-.6q-.1-.3-.3-.5-.2-.2-.6-.2h-.3q-.2.1-.3.1-.1.1-.2.3-.1.1-.1.3 0 .2.2.3.1.1.5.3l.8.2q.5.1.8.4.2.4.2.8t-.2.6q-.2.3-.5.5h-.1q-.2.1-.4.1zm3.5-.7q-.1.4-.2.7h-.7q.1-.3.2-.8.1-.4.3-.9.2-.5.5-1.1.3-.5.7-1.1H20v-.5h3.1v.5q-.3.3-.5.7l-.4.8q-.2.5-.4.9l-.2.8zm3.8.7v-1.1h-2v-.6l2-2.7h.6v2.7h.8v.6H26v1.1zm-1.4-1.7h1.4v-1.9zm3.2 2.4.3-.8h-.3v-.7h.8v.6l-.6.9zm2.9-5.1v4.3h-.6V101h-.8v-.4q.4 0 .6-.1.2 0 .3-.1.1-.2.1-.3zm1.7 4.3q-.3-.2-.5-.5-.2-.2-.3-.6h.6q.1.3.3.5.3.2.6.2.4 0 .6-.2.3-.2.4-.6.1-.4.1-1-.1.2-.2.3-.2.2-.4.3-.2.1-.5.1-.4 0-.8-.2-.3-.2-.5-.5t-.2-.7q0-.5.2-.8.2-.3.6-.5.3-.2.8-.2t.9.3q.4.2.6.7.2.5.2 1.2t-.2 1.2q-.2.6-.6.8-.4.3-1 .3-.4 0-.7-.1zm.2-2.3q.2.2.6.2.2 0 .4-.1l.4-.2q.1-.2.1-.4 0-.3-.1-.6-.1-.2-.3-.4-.2-.1-.5-.1t-.5.1q-.1.1-.3.4-.1.2-.1.5 0 .4.3.6zm3.5 2.3q-.3-.2-.5-.5-.2-.2-.3-.6h.6q.1.3.3.5.3.2.6.2t.6-.2q.3-.2.4-.6.1-.4.1-1-.1.2-.2.3-.2.2-.4.3-.2.1-.5.1-.4 0-.8-.2-.3-.2-.5-.5t-.2-.7q0-.5.2-.8.2-.3.6-.5.3-.2.8-.2t.9.3q.3.2.6.7.2.5.2 1.2t-.2 1.2q-.3.6-.6.8-.4.3-1 .3-.4 0-.7-.1zm.2-2.3q.2.2.6.2.2 0 .4-.1l.4-.2q.1-.2.1-.4 0-.3-.1-.6-.1-.2-.3-.4-.2-.1-.5-.1t-.5.1q-.2.1-.3.4-.1.2-.1.5 0 .4.3.6zm2.8 2.3v-.7h.7v.7zm3.8-.1q-.3.2-.8.2t-.9-.3q-.4-.2-.6-.7-.2-.5-.2-1.2t.2-1.2q.2-.5.6-.8.4-.3 1-.3.3 0 .6.1.4.2.6.4.2.3.2.7h-.6q-.1-.3-.3-.5-.2-.2-.5-.2-.4 0-.6.2-.3.2-.4.6-.1.4-.1 1 .1-.2.3-.4.1-.1.4-.2.2-.1.4-.1.4 0 .8.2.3.2.5.5t.2.7q0 .4-.2.8-.2.3-.6.5zm-.4-.4.4-.4q.1-.2.1-.5 0-.2-.1-.4t-.3-.4q-.2-.1-.5-.1-.2 0-.4.1t-.4.3q-.1.2-.1.4 0 .3.1.6.1.2.3.3.2.2.5.2.2 0 .4-.1zm3.1-3.8v4.3h-.7V101h-.8v-.4q.4 0 .6-.1.3 0 .3-.1.1-.2.2-.3z" class="q"/><path d="M10.1 118.7c0-2.2 1.8-4 4-4h71.7c2.2 0 4 1.8 4 4v14.4c0 2.2-1.8 4-4 4H14.1c-2.2 0-4-1.8-4-4z" class="o"/><path fill-rule="evenodd" d="M34.1 122v1.1h-.4v-2.4h.4v1q0-.1.1-.2l.1-.1h.3q.1 0 .3.1.1 0 .2.1v1.5h-.3V122q0-.2-.1-.2-.1-.1-.2-.1h-.2q-.1.1-.2.1v.2zm-3.6.8v.3h-1.6v-.6l.2-.2.2-.2q.2-.1.3-.2.1 0 .3-.1.1-.1.1-.2.1-.1.1-.2 0-.2-.1-.3-.1-.1-.3-.1-.3 0-.4.1-.1.2-.1.4h-.4q0-.2.1-.4t.3-.3q.2-.1.5-.1.2 0 .4.1t.3.2q.1.2.1.4t-.1.3l-.2.2-.2.2q-.1.1-.3.1l-.2.2q-.1.1-.2.1-.1.1-.1.3zm-14-.3-.2.6H16l.8-2.3h.4l.8 2.3h-.3l-.2-.6zm0-.3h.8l-.4-1.1zm2 .9q-.2-.1-.3-.3-.1-.2-.1-.5t.1-.5q.1-.2.3-.3.1-.1.4-.1.2 0 .3.1.2.1.2.2.1.1.2.3h-.3q-.1-.1-.1-.2-.1 0-.1-.1h-.2q-.2 0-.3.1-.2.2-.2.5t.1.4q.2.2.4.2h.2q.1-.1.1-.2l.1-.1h.3q-.1.2-.2.3 0 .1-.2.2-.1.1-.3.1-.3 0-.4-.1zm2.4 0q-.1.1-.3.1-.3 0-.4-.1-.2-.1-.3-.3-.1-.2-.1-.5t.1-.5q.1-.2.3-.3.1-.1.4-.1.2 0 .3.1.2.1.2.2.1.1.2.3H21q-.1-.1-.1-.2-.1 0-.1-.1h-.2q-.2 0-.3.1-.2.2-.2.5t.1.4q.2.2.4.2h.2q.1-.1.1-.2l.1-.1h.3q-.1.2-.2.3 0 .1-.2.2zm1 0q-.2-.1-.3-.3-.1-.2-.1-.5t.1-.5q.1-.2.3-.3.1-.1.4-.1.2 0 .4.1t.3.3q.1.2.1.5t-.1.4q-.1.2-.3.4-.2.1-.4.1-.3 0-.4-.1zm.1-.3q.1.1.3.1.1 0 .2-.1l.2-.2v-.6q-.1-.2-.2-.2-.1-.1-.2-.1-.2 0-.3.1-.1 0-.1.2-.1.1-.1.3 0 .2.1.3 0 .1.1.2zm1.7.3q-.1 0-.2-.1t-.1-.2-.1-.2v-1.2h.4v1.2q0 .1.1.2t.2.1q.2 0 .3-.1.1-.1.1-.3v-1.1h.4v1.7h-.3v-.3q-.1.1-.1.2-.1.1-.2.1-.1.1-.2.1-.2 0-.3-.1zm1.8-1.1v1.1h-.3v-1.7h.3v.3l.1-.1q.1-.1.2-.1.1-.1.2-.1.2 0 .3.1.2 0 .2.2.1.1.1.3v1.1h-.3v-1q0-.2-.1-.3-.1-.1-.3-.1h-.2l-.1.1q-.1.1-.1.2zm1.8 1.1q-.1-.1-.1-.2-.1-.1-.1-.2v-1h-.3v-.3h.3l.1-.5h.3v.5h.3v.3h-.3V122.9h.4v.2H27.3zm4.6-.1q-.2-.1-.4-.4-.1-.3-.1-.7 0-.3.1-.6.2-.3.4-.4.2-.2.5-.2t.5.1q.2.1.3.3.1.2.1.4H33q-.1-.1-.1-.2l-.2-.2q-.1-.1-.3-.1-.2 0-.3.1-.2.1-.2.3-.1.2-.1.5 0 .5.2.7.1.3.4.3.2 0 .3-.1l.2-.2q0-.1.1-.2h.3v.3l-.2.2q-.1.1-.3.2-.2.1-.4.1-.3 0-.5-.2zm3.9.1q-.2-.1-.3-.3-.1-.2-.1-.5t.1-.5q.1-.2.3-.3.2-.1.4-.1.3 0 .4.1.2.1.3.3.1.2.1.5v.1h-1.2v.2q.1.2.2.2.1.1.2.1.2 0 .3-.1.1 0 .1-.2h.4q-.1.2-.2.3l-.2.2q-.2.1-.4.1t-.4-.1zm0-1h.8v-.2q-.1-.1-.1-.2H36l-.2.2v.2zm1.8 1q-.2-.1-.3-.3-.1-.2-.1-.5t.1-.5q.1-.2.3-.3.1-.1.4-.1.2 0 .3.1.2.1.3.2 0 .1.1.3h-.3q0-.1-.1-.2l-.1-.1H38q-.2 0-.3.1-.2.2-.2.5t.2.4q.1.2.3.2h.2q.1-.1.1-.2.1 0 .1-.1h.3q-.1.2-.1.3-.1.1-.3.2-.1.1-.3.1-.2 0-.4-.1zm1.7-.5v.5H39v-2.4h.3v1.5l.8-.8h.4l-.6.7.6 1h-.3l-.5-.8zm1.4-1.5v-.3h.4v.3zm.3.3v1.7h-.3v-1.7zm.4 1.7v-1.7h.4v.3q0-.1.1-.2.1 0 .2-.1h.2q.2 0 .3.1.1 0 .2.2.1.1.1.3v1.1h-.4V122q0-.1-.1-.2t-.2-.1H42l-.1.1q-.1.1-.1.2v1.1zm3.2.4q-.2.2-.6.2-.5 0-.7-.1-.2-.2-.2-.4v-.1l.1-.1q.1-.1.2-.1l-.1-.1-.1-.1q0-.1.1-.2t.2-.1l-.2-.2q-.1-.1-.1-.3 0-.1.1-.3.1-.1.3-.1.1-.1.4-.1h.3q.1.1.2.1h.2q0-.1.1-.1h.1v.3h-.3v.1l.1.1q0 .2-.1.3-.1.1-.3.2-.1.1-.4.1H43.6v.1q.1 0 .3.1H44.2q.3 0 .5.1.1.1.1.3 0 .3-.2.4zm-.4-1.3q.1-.1.1-.3 0-.1-.1-.2t-.2-.1q-.2 0-.3.1-.1.1-.1.2 0 .2.1.3.1.1.3.1.1 0 .2-.1zm-.6 1.2q.1.1.4.1.2 0 .4-.1.1-.1.1-.2t-.1-.2h-.2l-.5-.1-.1.1q-.1 0-.1.1-.1 0-.1.1t.2.2z" class="p"/><path fill-rule="evenodd" d="M17.5 131.2v-.6h-.1q-.4-.1-.8-.3-.4-.3-.5-.9h.7q.1.3.3.5.3.2.7.2.3 0 .5-.1t.3-.2q.1-.2.1-.4t-.1-.4q-.2-.2-.6-.3l-.7-.1q-.5-.2-.8-.4-.3-.3-.3-.8 0-.4.2-.7.2-.2.6-.4h.1q.2-.1.4-.1h.1v-.7h.5v.7h.1q.2 0 .4.1.4.2.5.5.2.3.2.6h-.6q-.1-.3-.3-.5-.2-.2-.6-.2h-.3q-.2.1-.3.1-.1.1-.2.3-.1.1-.1.3 0 .2.2.3.1.1.5.3l.8.2q.5.1.8.4.2.4.2.8t-.2.7q-.2.2-.5.4h-.1q-.2.1-.4.1h-.1v.6zm3.2-.6v-3.5h-.8v-.4h.6q.3-.1.3-.2.1-.1.2-.3h.4v4.4zm2.4-.1-.6.9h-.2l.3-.8h-.3v-.8h.8zm1.4.1q-.3-.2-.5-.4-.2-.3-.3-.7h.6q.1.3.3.5.3.2.6.2t.6-.2q.3-.2.4-.6.1-.4.1-1l-.2.4-.4.2q-.2.1-.5.1-.4 0-.8-.2-.3-.1-.5-.5-.2-.3-.2-.7 0-.4.2-.8.2-.3.5-.5.4-.2.9-.2t.9.3q.3.2.5.7.3.5.3 1.2t-.3 1.2q-.2.6-.6.8-.3.3-.9.3-.4 0-.7-.1zm.1-2.3q.3.3.7.3.2 0 .4-.2.2-.1.3-.2.2-.2.2-.4 0-.3-.1-.6-.1-.2-.3-.3-.3-.2-.5-.2-.3 0-.5.1-.2.2-.3.4-.1.2-.1.5 0 .4.2.6zm3.6 2.3v-3.4h-.8v-.4q.4 0 .6-.1.2 0 .3-.1.1-.2.2-.3h.4v4.3zm3.1-4.3v4.3h-.7v-3.4h-.8v-.4q.4 0 .6-.1.2 0 .3-.1.1-.2.1-.3zm1 4.3v-.7h.7v.7zm3.9-1v1h-.6v-1h-2v-.6l2-2.7h.6v2.7h.7v.6zm-.6-2.5-1.4 1.9h1.4zm3.2-.8v4.4h-.7v-3.5h-.8v-.4h.6q.2-.1.3-.2.1-.1.1-.3z" class="q"/><path d="M10.1 144.8c0-2.2 1.8-4 4-4h71.7c2.2 0 4 1.8 4 4v14.4c0 2.2-1.8 4-4 4H14.1c-2.2 0-4-1.8-4-4z" class="o"/><path fill-rule="evenodd" d="M28.9 149.2v-.6l.2-.2.2-.2q.2-.1.3-.2.1 0 .3-.1.1-.1.1-.2.1-.1.1-.2 0-.2-.1-.3-.1-.1-.3-.1-.3 0-.4.1-.1.2-.1.4h-.4q0-.2.1-.4t.3-.3q.2-.1.5-.1.2 0 .4.1t.3.2q.1.2.1.4t-.1.3l-.2.2-.2.2q-.1.1-.3.1l-.2.2-.2.2q-.1 0-.1.2h1.3v.3zm-13 0 .8-2.3h.4l.9 2.3h-.4l-.2-.6h-.9l-.3.6zm1.1-2-.4 1.1h.8zm2.3 2h-.4q-.2 0-.4-.1-.1-.1-.2-.3-.1-.2-.1-.4v-.5q.1-.2.3-.3.2-.1.4-.1t.4.1q.1 0 .2.2.1.1.1.3h-.3v-.2q-.1-.1-.2-.1h-.2q-.2 0-.3.1-.1.1-.1.5 0 .2.1.4t.3.2q.2 0 .2-.1.1 0 .2-.1v-.1h.3q0 .1-.1.3l-.2.2zm.9-.1q-.1-.1-.2-.3-.1-.2-.1-.4v-.5q.1-.2.3-.3.2-.1.4-.1t.4.1q.1 0 .2.2.1.1.1.3H21v-.2q-.1-.1-.2-.1h-.2q-.2 0-.3.1-.1.1-.1.5 0 .2.1.4t.3.2q.2 0 .2-.1.1 0 .2-.1v-.1h.3q0 .1-.1.3l-.2.2h-.4q-.2 0-.4-.1zm2.6 0q-.2.1-.5.1-.2 0-.4-.1t-.2-.3q-.1-.2-.1-.4v-.5q.1-.2.3-.3.2-.1.4-.1.3 0 .4.1.2.1.3.3.1.2.1.5 0 .2-.1.4t-.2.3zm-.2-.2q.1-.1.1-.2.1-.2.1-.3 0-.2-.1-.4 0-.1-.1-.2t-.3-.1q-.1 0-.2.1l-.2.2v.7l.2.2q.1.1.2.1.2 0 .3-.1zm1.6.3h-.4q-.1 0-.2-.1l-.2-.2v-1.4h.3v1.1q0 .2.1.3.1.1.3.1.2 0 .3-.1.1-.1.1-.3v-1.1h.3v1.7h-.2l-.1-.3q0 .1-.1.2t-.2.1zm1 0v-1.7h.4v.3q0-.1.1-.2.1 0 .2-.1h.2q.2 0 .3.1.1 0 .2.1.1.2.1.4v1.1h-.4v-1.1q0-.2-.1-.2-.1-.1-.2-.1h-.2q-.1 0-.2.1v1.3zm2.6 0h-.5q-.1-.1-.1-.2-.1-.1-.1-.2v-1h-.2v-.3h.2l.1-.5h.3v.5h.3v.3h-.3v1.1h.4v.3h-.1zm5-.1q-.2.1-.4.1H32q-.1-.1-.2-.1-.2-.1-.3-.2 0-.2-.1-.3h.4q0 .1.1.2t.2.1h.5q.2 0 .2-.1.1-.1.1-.2v-.2q-.1-.1-.2-.1-.1-.1-.2-.1l-.4-.1q-.3 0-.4-.2-.2-.1-.2-.4 0-.2.1-.4.1-.1.3-.2.2-.1.5-.1.2 0 .4.1t.3.3q.1.1.1.3h-.3q0-.2-.1-.2l-.2-.2h-.4q-.1 0-.2.1-.1 0-.1.1v.4q.1 0 .3.1l.5.1q.2 0 .3.1l.2.2v.2q.1.1.1.2 0 .2-.1.3-.2.2-.4.2zm1 .1-.2-.2q-.1-.1-.1-.3 0-.2.2-.4.2-.1.7-.1h.2v-.4q-.1-.1-.3-.1-.1 0-.2.1-.2.1-.2.2h-.3q0-.2.1-.3l.2-.2h.8l.2.2q.1.1.1.3v1.2h-.3v-.3q-.1.2-.3.3h-.6zm.2-.3q.1.1.2.1h.2q0-.1.1-.1l.1-.1v-.4h-.5q-.1 0-.2.1v.2q0 .1.1.2zm1.8.3-.6-1.7h.3l.4 1.3h.1l.4-1.3h.3l-.6 1.7zm1.5-2.4v.4H37v-.4zm-.4 2.4v-1.7h.4v1.7zm1.1-1.1v1.1h-.3v-1.7h.3v.3q0-.1.1-.2.1 0 .2-.1h.2q.2 0 .3.1.1 0 .2.1.1.2.1.4v1.1h-.3v-1.1q0-.2-.1-.2-.1-.1-.3-.1h-.2q-.1 0-.1.1-.1.1-.1.2zm1.6 1.5q-.2-.1-.2-.3v-.1l.1-.1.1-.1h.1l-.1-.1h-.1v-.2l.1-.1q.1-.1.2-.1l-.2-.2q-.1-.1-.1-.3 0-.1.1-.3.1-.1.3-.2h.6q.1.1.2.1h.1q.1 0 .1-.1h.2l.1-.1v.3l-.3.1v.5q-.1.1-.3.2-.1.1-.4.1H39.9q-.1 0-.1.1H40.1q.1 0 .2.1h.2q.3 0 .4.1.2.1.2.3 0 .3-.2.4-.2.2-.7.2-.4 0-.6-.2zm.3-1.3h.6q.1-.1.1-.3 0-.1-.1-.2t-.3-.1q-.1 0-.2.1-.2.1-.2.2 0 .2.1.3zm.7 1.2q.1-.1.1-.2v-.2h-.3l-.4-.1q-.1 0-.1.1-.1 0-.1.1-.1 0-.1.1t.2.2h.7zm1.8-.3h-.7q-.1-.1-.3-.2-.1-.1-.1-.3h.3q.1.1.1.2h.2q0 .1.1.1.2 0 .3-.1.1 0 .1-.2l-.1-.1q0-.1-.1-.1l-.4-.1q-.2 0-.3-.1-.1-.1-.1-.3v-.3q.1-.1.3-.2h.3q.3 0 .5.1t.2.4h-.3q0-.1-.1-.2t-.3-.1q-.1 0-.2.1-.1 0-.1.2l.1.1.2.1.3.1h.2q.1.1.1.2.1 0 .1.1v.1q0 .2-.1.3l-.2.2z" class="p"/><path fill-rule="evenodd" d="M18.1 156.7v.6h-.6v-.6h-.1q-.4-.1-.8-.3-.4-.3-.5-.9h.7q.1.3.3.5.3.2.7.2.3 0 .5-.1t.3-.2q.1-.2.1-.4t-.1-.4q-.2-.2-.6-.3l-.7-.1q-.5-.2-.8-.4-.3-.3-.3-.8 0-.4.2-.6.2-.3.6-.5h.1q.2-.1.4-.1h.1v-.7h.5v.7h.1q.2 0 .4.1.4.2.5.5.2.3.2.6h-.6q-.1-.3-.3-.5-.2-.2-.6-.2h-.3q-.2.1-.3.2-.1 0-.2.2-.1.1-.1.3 0 .2.2.3.1.1.5.3l.8.2q.5.1.8.4.2.4.2.8t-.2.7q-.2.2-.5.4h-.1q-.2.1-.4.1zm4.9-.6v.6h-3v-.6q0-.3.2-.6.1-.2.3-.4.2-.2.4-.3.3-.2.5-.3.3-.1.5-.3.2-.1.3-.3.1-.2.1-.4 0-.3-.2-.5t-.6-.2q-.4 0-.6.2-.3.2-.3.6H20q0-.4.1-.7.2-.3.6-.5.3-.2.8-.2t.8.2q.4.1.5.4.2.3.2.7 0 .3-.1.6-.1.2-.3.4-.2.2-.5.3l-.4.2q-.3.2-.5.3-.2.1-.3.3-.1.2-.1.4v.1zm.9.1q-.5-.6-.5-1.7 0-.8.2-1.3t.6-.7q.3-.3.8-.3.8 0 1.2.6.4.6.4 1.7t-.4 1.7q-.4.5-1.2.5-.7 0-1.1-.5zm.5-.4q.2.4.6.4.5 0 .7-.4.2-.4.2-1.3t-.2-1.3q-.2-.4-.7-.4-.4 0-.6.4-.3.4-.3 1.3t.3 1.3zm2.7 1.6.3-.7h-.3v-.8h.8v.7l-.5.8zm4-1.8v1.1h-.6v-1.1h-2.1v-.6l2.1-2.7h.6v2.7h.7v.6zm-.6-2.5-1.4 1.9h1.4zm3.3 2.9q-.1.4-.1.7H33q0-.3.1-.7l.4-1q.2-.5.4-1.1.3-.5.7-1.1h-2.4v-.5h3.1v.5q-.2.3-.4.7-.3.4-.5.9-.2.4-.3.8-.2.4-.3.8zm2.9.6q-.3-.1-.6-.4-.2-.2-.3-.6l.5-.2q.1.2.3.4.1.2.3.3.3.1.5.1.5 0 .8-.2.2-.3.2-.7 0-.3-.1-.5t-.3-.3q-.2-.1-.5-.1h-.3q-.2 0-.3.1-.2.1-.3.2 0 .1-.1.1v-.1l-.5-.1.2-2.3h2.6v.5h-2.1l-.1 1.4q.2-.2.5-.3.2-.1.5-.1.4 0 .8.2.3.1.5.5.2.3.2.7 0 .5-.2.8-.2.4-.5.6-.4.1-.9.1-.4 0-.8-.1zm3.7-.7v.8h-.8v-.8zm1 .3q-.4-.6-.4-1.7 0-.7.2-1.2.2-.6.5-.8.4-.3.9-.3.7 0 1.1.6.5.6.5 1.7t-.5 1.7q-.4.5-1.1.5-.8 0-1.2-.5zm.5-.4q.2.4.7.4.4 0 .6-.4.3-.4.3-1.3t-.3-1.3q-.2-.4-.6-.4-.5 0-.7.4-.2.4-.2 1.3t.2 1.3zm3.1.4q-.4-.6-.4-1.7 0-.7.2-1.2.2-.6.5-.8.4-.3.9-.3.7 0 1.1.6.5.6.5 1.7t-.5 1.7q-.4.5-1.1.5-.8 0-1.2-.5zm.5-.4q.2.4.7.4.4 0 .7-.4.2-.4.2-1.3t-.3-1.3q-.2-.4-.6-.4-.5 0-.7.4-.2.4-.2 1.3t.2 1.3z" class="q"/><path d="M4.9 154.6H95v18.6H4.9z" class="o"/><path d="M40.3 164.1c0-3.1 2.5-5.6 5.6-5.6h8.3c3.1 0 5.6 2.5 5.6 5.6 0 3.1-2.5 5.6-5.6 5.6h-8.3c-3.1 0-5.6-2.5-5.6-5.6z" style="fill:url(#g8)"/><path fill-rule="evenodd" d="m51.7 162-2.2 4.5h-1.3l2.2-4.5z" class="o"/><path fill-rule="evenodd" d="m53.4 163.7-.6 1.2h-6l.7-1.2zM50.3 5.2l-4.1 7.3H44l4-7.3z" class="o"/><path fill-rule="evenodd" d="m53 5.2-4 7.3h-2.2l4-7.3z" class="t"/><path fill-rule="evenodd" d="m55.7 5.2-4 7.3h-2.2l4-7.3z" class="u"/><path fill-rule="evenodd" d="M89.7-2.7h-1.1v1.2l-.8-.9-.4-.3h-1v-.7h-.2V-4l-.4-.4-.8-.8h1.4v-.2h3.3zm3.8-2.7v2.7h-2.7zM16-3.4q-.2.1-.5.1-.2 0-.4-.1t-.3-.4q-.1-.2-.1-.6 0-.3.1-.5.1-.3.3-.4.2-.2.4-.2.3 0 .5.2.2.1.3.4.1.2.1.5 0 .4-.1.6-.1.3-.3.4zm-4.7-2v2.1h-.4v-1.6l-.4.2-.2-.3.7-.4zm1.8 1.7v.4h-.4v-.4h-1V-4l1-1.4h.4v1.3h.3v.4zm-.4-1.1h-.1l-.5.7h.6zm1.5.4q-.1.1-.2.1t-.2-.1q-.1-.1-.1-.2t.1-.2q.1-.1.2-.1t.2.1v.4zm-.4 1.1q-.1-.1-.1-.2t.1-.2q.1-.1.2-.1t.2.1v.4q-.1.1-.2.1t-.2-.1zm2-.4q.1-.1.1-.2.1-.2.1-.4 0-.3-.1-.5-.2-.2-.4-.2t-.3.2q-.2.2-.2.5 0 .2.1.4 0 .1.2.2.1.1.2.1.2 0 .3-.1zM18.2-5l-1 1.8-.4-.2.9-1.6h-1v-.4h1.5z" class="o"/></g><path fill-rule="evenodd" d="M125.9-121.8H200c7.1 0 12.8 5.6 12.8 12.4V60.4c0 6.8-5.7 12.4-12.8 12.4h-74.1c-7.1 0-12.9-5.6-12.9-12.4v-169.8c0-6.8 5.8-12.4 12.9-12.4z" class="a"/><path fill-rule="evenodd" d="M200.3 72.8h-74.7c-3.7-.2-6.8-1.5-9.3-4.1 1.9 1.5 4.9 3.2 9.3 3.2h74.6c4.4 0 7.6-1.9 9.5-3.5-2.5 2.9-5.7 4.2-9.4 4.4z" style="opacity:.5;fill:url(#g9)"/><path fill-rule="evenodd" d="M116.9 69.2c2.1 1.7 4.8 2.7 7.7 2.7H202c2.6 0 5-.8 6.9-2.1-2.2 2-5.1 3.2-8.3 3.2h-74.8c-3.5 0-6.7-1.5-8.9-3.8z" style="opacity:.6;fill:url(#g10)"/><path fill-rule="evenodd" d="M210.8 58.4v-166.8c0-4.4-1.6-6.1-2.6-7.1-1-1.1-1-1.7.4-.9 1.4.9 4.2 3.2 4.2 8V58.4c0 4.9-2.8 7.2-4.2 8-1.4.8-1.4.3-.4-.8 1-1 2.6-2.7 2.6-7.2z" style="opacity:.7;fill:url(#g11)"/><path fill-rule="evenodd" d="M117.6 65.6c1 1.1 1 1.6-.4.8s-4.2-3.1-4.2-8v-166.8c0-4.8 2.8-7.1 4.2-8 1.4-.8 1.4-.2.4.9-1 1-2.6 2.7-2.6 7.1V58.4c0 4.5 1.6 6.2 2.6 7.2z" style="opacity:.7;fill:url(#g12)"/><path fill-rule="evenodd" d="M157.3-114.2c1.1 2.9 3.5 3.8 4.4 3.8h2.2c1.8 0 3.5-1.7 4.4-3.8.8-2.1 2.8-2.9 3-2.9h29.2c4.1 0 7.5 2.6 7.5 7.2V54.4c0 5-5.1 9.5-10.3 9.5h-69.5c-5.5 0-10.3-4.5-10.3-9.5v-164.7c0-3.9 3.1-6.8 7.4-6.8h28.8c.1 0 2 0 3.2 2.9z" class="l"/><g clip-path="url(#cp2)"><path d="M117.9-117H208V63.8h-90.1z" class="m"/><path d="M123.2-65.1c0-2.2 1.8-4 4-4h71.7c2.2 0 4 1.8 4 4v14.3c0 2.2-1.8 4-4 4h-71.7c-2.2 0-4-1.8-4-4z" class="o"/><path fill-rule="evenodd" d="M141.9-60.7v-.3q0-.2.1-.3.1-.2.2-.3.1-.1.2-.1.2-.1.3-.2.1 0 .2-.1.2-.1.2-.2.1-.1.1-.2 0-.2-.1-.3-.2-.1-.4-.1t-.3.1q-.1.1-.2.4h-.3q0-.2.1-.4t.3-.3q.2-.1.5-.1.2 0 .4.1t.3.2q.1.2.1.4t-.1.3l-.2.2-.2.2q-.2.1-.3.1l-.2.2q-.1 0-.2.1t-.1.2v.1h1.3v.3zm-13 0 .8-2.4h.4l.9 2.4h-.4l-.2-.6h-.9l-.3.6zm1.1-2-.4 1.1h.7zm2.4 1.9q-.2.1-.4.1t-.4-.1q-.2-.1-.3-.3-.1-.2-.1-.5 0-.2.1-.4t.3-.3q.2-.1.4-.1h.4l.2.2q.1.2.1.3h-.3l-.1-.1q0-.1-.1-.1-.1-.1-.2-.1-.2 0-.3.2-.1.1-.1.4 0 .3.1.5.1.1.3.1h.2q.1-.1.2-.1v-.2h.3q0 .2-.1.3-.1.2-.2.2zm.9 0q-.2-.1-.3-.3-.1-.2-.1-.5 0-.2.1-.4t.3-.3q.2-.1.4-.1h.4l.2.2q.1.2.1.3h-.3l-.1-.1q0-.1-.1-.1-.1-.1-.2-.1-.2 0-.3.2-.1.1-.1.4 0 .3.1.5.1.1.3.1h.2q.1-.1.2-.1v-.2h.3q0 .2-.1.3-.1.2-.2.2-.2.1-.4.1t-.4-.1zm2.5 0q-.1.1-.4.1-.2 0-.4-.1t-.3-.3q-.1-.2-.1-.5 0-.2.1-.4t.3-.3q.2-.1.4-.1.3 0 .4.1.2.1.3.3.1.2.1.4 0 .3-.1.5t-.3.3zm-.1-.2q.1-.1.1-.3.1-.1.1-.3 0-.1-.1-.3 0-.1-.1-.2t-.3-.1q-.1 0-.2.1l-.2.2v.6q.1.2.2.2.1.1.2.1h.3zm1.6.3h-.4q-.1-.1-.2-.1l-.2-.2V-62.4h.3v1.1q0 .1.1.2t.3.1q.2 0 .3-.1.1 0 .1-.2v-1.1h.3v1.7h-.2l-.1-.4q0 .2-.1.2l-.2.2zm1 0v-1.7h.4v.2l.1-.1q.1-.1.2-.1h.5l.2.2q.1.2.1.4v1.1h-.4v-1.1q0-.2-.1-.3-.1-.1-.2-.1t-.2.1-.2.1v1.3zm2.5 0h-.1q-.2 0-.3-.1-.1 0-.1-.1-.1-.1-.1-.3v-1h-.3v-.2h.3l.1-.5h.3v.5h.3v.2h-.3v1.2H140.9v.2q0 .1-.1.1zm5.1-.1q-.2.1-.4.1h-.4q-.1-.1-.3-.2l-.2-.2q-.1-.1-.1-.3h.4q0 .2.1.2l.2.2h.5q.2-.1.2-.2.1 0 .1-.1 0-.2-.1-.2 0-.1-.1-.1-.1-.1-.2-.1l-.5-.1-.4-.2q-.1-.2-.1-.4t.1-.4q.1-.1.3-.2.2-.1.4-.1.3 0 .5.1t.3.2q.1.2.1.4h-.3q0-.2-.1-.3-.1-.1-.2-.1h-.4q-.1 0-.2.1-.1 0-.1.1V-62.3q.1.1.3.2l.5.1q.2 0 .3.1.1.1.1.2.1 0 .1.1l.1.2q0 .2-.2.4-.1.1-.3.2zm1 0q-.1 0-.2-.1t-.1-.3q0-.3.2-.4.2-.2.6-.2h.3v-.1q0-.1-.1-.2 0-.1-.2-.1t-.3.1q-.1 0-.1.2h-.3q0-.2.1-.3l.2-.2h.8l.2.2q.1.1.1.3v1.2h-.3l-.1-.3-.2.2q-.1.1-.3.1-.2 0-.3-.1zm.1-.2q.1.1.3.1.1 0 .1-.1.1 0 .2-.1l.1-.1v-.4h-.2q-.2 0-.3.1-.1 0-.2.1v.4zm1.9.3-.6-1.7h.3l.4 1.2.5-1.2h.3l-.6 1.7zm1.5-2.4v.4h-.3v-.4zm-.4 2.4v-1.7h.3v1.7zm1.2-1.1v1.1h-.4v-1.7h.4v.2l.1-.1q.1-.1.2-.1h.5l.2.2q.1.2.1.4v1.1h-.4v-1.1q0-.2-.1-.3-.1-.1-.2-.1t-.2.1q-.1 0-.1.1-.1 0-.1.2zm1.6 1.5q-.2-.1-.2-.3v-.2l.1-.1h.1l.1-.1h-.1l-.1-.1v-.1q0-.1.1-.1 0-.1.2-.1-.2-.1-.2-.2-.1-.2-.1-.3 0-.2.1-.3l.2-.2h.7q.1 0 .2.1h.1l.1-.1h.2l.1-.1v.3l-.3.1v.2q0 .1-.1.3 0 .1-.2.2h-.5q-.2 0-.2.1h-.1q0 .1.1.1H153.7q.3 0 .4.2.2.1.2.3 0 .2-.3.4-.2.1-.6.1-.4 0-.6-.1zm.3-1.4q.1.1.3.1.2 0 .3-.1.1-.1.1-.2 0-.2-.1-.3h-.6q-.1.1-.1.3 0 .1.1.2zm.7 1.2q.1 0 .1-.1t-.1-.2q0-.1-.2-.1H153q0 .1-.1.1v.1q0 .2.1.2.2.1.5.1.2 0 .3-.1zm1.8-.3q-.2.1-.4.1t-.3-.1-.3-.1q-.1-.2-.1-.3h.3q0 .1.1.1l.1.1h.5q.1-.1.1-.2t-.1-.1q0-.1-.2-.1l-.3-.1q-.2 0-.3-.1-.1-.1-.1-.3v-.3q.1-.1.3-.2h.3q.3 0 .5.1.1.1.1.3h-.3q0-.1-.1-.1 0-.1-.2-.1-.1 0-.2.1-.1 0-.1.1v.2h.2l.4.1q.1.1.2.1 0 .1.1.1 0 .1.1.2v.1q0 .1-.1.3-.1.1-.2.1z" class="p"/><path fill-rule="evenodd" d="M131.2-53.2v.5h-.6v-.5l-.1-.1q-.4 0-.8-.2-.4-.3-.5-.9l.7-.1q.1.4.3.6.3.1.7.1h.5q.2-.1.3-.3.1-.1.1-.3 0-.3-.1-.5-.2-.1-.6-.2l-.7-.2q-.5-.1-.8-.4-.3-.3-.3-.7 0-.4.2-.7.2-.3.6-.4l.1-.1q.2 0 .4-.1v-.6h.6v.6h.1l.4.2q.4.1.5.4.2.3.2.6l-.6.1q-.1-.4-.3-.6-.2-.2-.6-.2-.1 0-.3.1-.2 0-.3.1l-.2.2q-.1.2-.1.3 0 .2.2.4.1.1.5.2l.8.2q.5.2.8.5.2.3.2.8 0 .3-.2.6t-.5.4l-.2.1h-.3zm3.5-.7q-.1.4-.2.7h-.7q.1-.3.2-.7.1-.5.3-1 .2-.5.5-1 .3-.6.7-1.1H133v-.6h3.2v.6q-.3.3-.5.7l-.4.8-.4.8q-.1.5-.2.8zm3.8.7v-1.1h-2v-.5l2-2.8h.6v2.8h.7v.5h-.7v1.1zm-1.4-1.6h1.4v-1.9zm3.1 2.4.4-.8h-.3v-.7h.8v.6l-.6.9zm2.9-5.2v4.4h-.6v-3.4h-.9v-.4q.4 0 .7-.1.2-.1.3-.2.1-.1.1-.3zm1.7 4.3q-.3-.1-.5-.4-.2-.3-.3-.6h.6q.1.3.3.5.3.1.6.1t.6-.2q.3-.1.4-.5.1-.4.1-1.1l-.2.4q-.2.2-.4.3h-.5q-.4 0-.8-.1-.3-.2-.5-.5t-.2-.7q0-.5.2-.8.2-.4.5-.5.4-.2.9-.2t.9.2q.3.3.5.8.3.5.3 1.1 0 .8-.3 1.3-.2.5-.6.8-.3.3-.9.3-.4 0-.7-.2zm.1-2.2q.3.2.7.2.2 0 .4-.1t.3-.3q.2-.1.2-.3 0-.4-.1-.6-.1-.2-.3-.4-.3-.1-.5-.1-.3 0-.5.1t-.3.3q-.1.2-.1.5 0 .4.2.7zm3.6 2.2q-.3-.1-.5-.4-.3-.3-.3-.6h.6q.1.3.3.5.2.1.6.1.3 0 .6-.2.3-.1.4-.5.1-.4.1-1.1l-.2.4q-.2.2-.4.3h-.5q-.4 0-.8-.1-.3-.2-.5-.5t-.2-.7q0-.5.2-.8.2-.4.5-.5.4-.2.9-.2t.9.2q.3.3.5.8t.2 1.1q0 .8-.2 1.3t-.6.8q-.4.3-.9.3-.4 0-.7-.2zm.1-2.2q.3.2.7.2.2 0 .4-.1t.3-.3q.2-.1.2-.3 0-.4-.1-.6l-.4-.4q-.2-.1-.4-.1-.3 0-.5.1t-.3.3q-.1.2-.1.5 0 .4.2.7zm2.9 2.3v-.8h.7v.8zm3.8-.1q-.3.2-.8.2t-.9-.3q-.4-.3-.6-.8-.2-.4-.2-1.1 0-.7.2-1.2.2-.6.6-.9.4-.2.9-.2.4 0 .7.1.3.1.5.4.3.3.3.6h-.6q-.1-.3-.3-.4-.2-.2-.6-.2-.3 0-.6.2-.2.2-.3.6-.1.4-.1 1 .1-.2.3-.4.1-.1.3-.2.2-.1.5-.1.4 0 .8.2.3.1.5.4.1.3.1.8 0 .4-.2.7-.1.4-.5.6zm-.4-.5q.2-.1.3-.3.2-.2.2-.5t-.2-.5q-.1-.2-.3-.3-.2-.1-.4-.1-.3 0-.5.1t-.3.3q-.1.2-.1.4 0 .3.1.5.1.3.3.4.2.1.5.1.2 0 .4-.1zm3.1-3.8v4.4h-.7v-3.4h-.8v-.4q.4 0 .6-.1.2-.1.3-.2.1-.1.1-.3z" class="q"/><path d="M123.2-39.1c0-2.2 1.8-4 4-4h71.7c2.2 0 4 1.8 4 4v14.3c0 2.2-1.8 4-4 4h-71.7c-2.2 0-4-1.8-4-4z" class="o"/><path fill-rule="evenodd" d="M147.1-35.8v1.1h-.3v-2.4h.3v1q.1-.1.1-.2.1 0 .2-.1h.5q.2.1.3.2v1.5h-.3v-1.1q0-.2-.1-.3h-.5l-.1.1q-.1.1-.1.2zm-3.5.8v.3h-1.7v-.3q0-.2.1-.3.1-.2.2-.3.1-.1.2-.1.2-.1.3-.2.1 0 .2-.1.2-.1.2-.2.1-.1.1-.2 0-.2-.1-.3-.2-.1-.4-.1t-.3.1q-.1.1-.2.4h-.3q0-.2.1-.4t.3-.3q.2-.1.5-.1.2 0 .4.1t.3.2q.1.2.1.4t-.1.3l-.2.2-.2.2q-.2.1-.3.1l-.2.2q-.1 0-.2.1t-.1.2v.1zm-14-.3-.2.6h-.4l.9-2.4h.4l.8 2.4h-.3l-.3-.6zm.1-.3h.8l-.4-1.1zm2 .8q-.2-.1-.3-.3-.1-.1-.1-.4 0-.3.1-.5t.2-.3q.2-.1.5-.1.2 0 .3.1.1 0 .2.2.1.1.1.3h-.3v-.2q-.1 0-.1-.1h-.2q-.2 0-.4.1-.1.2-.1.5t.1.4q.1.2.4.2.1 0 .2-.1l.1-.1q0-.1.1-.1h.2q0 .1-.1.3l-.2.2h-.3q-.3 0-.4-.1zm2.4.1h-.3q-.3 0-.4-.1-.2-.1-.3-.3-.1-.1-.1-.4 0-.3.1-.5t.2-.3q.2-.1.5-.1.2 0 .3.1.1 0 .2.2.1.1.1.3h-.3v-.2q-.1 0-.1-.1h-.2q-.2 0-.4.1-.1.2-.1.5t.1.4q.1.2.4.2.1 0 .2-.1l.1-.1q0-.1.1-.1h.2q0 .1-.1.3l-.2.2zm1-.1q-.2-.1-.3-.3-.1-.1-.1-.4 0-.3.1-.5t.2-.3q.2-.1.5-.1.2 0 .4.1t.2.3q.1.2.1.5v.4q-.1.2-.3.3-.2.1-.4.1-.3 0-.4-.1zm.1-.2q.1.1.3.1.1 0 .2-.1t.1-.2q.1-.2.1-.3v-.3q-.1-.2-.2-.3h-.5q-.1.1-.1.2-.1.2-.1.4 0 .1.1.3 0 .1.1.2zm1.7.3q-.1 0-.2-.1t-.1-.2-.1-.2v-1.2h.4v1.1q0 .2.1.3 0 .1.2.1t.3-.1q.1-.1.1-.3v-1.1h.4v1.7h-.3v-.3l-.2.2q0 .1-.1.1h-.5zm1.8-1.1v1.1h-.3v-1.7h.3v.3q.1-.1.1-.2.1 0 .2-.1h.2q.2 0 .3.1.2 0 .2.2.1.1.1.3v1.1h-.3v-1.1q0-.1-.1-.2t-.3-.1h-.2l-.1.1q-.1.1-.1.2zm1.8 1.1-.2-.2v-1.2h-.3v-.3h.3l.1-.5h.3v.5h.3v.3h-.3V-34.9H141v.2h-.5zm4.6-.1q-.3-.2-.4-.4-.1-.3-.1-.7 0-.4.1-.6.1-.3.4-.4.2-.2.5-.2t.5.1q.2.1.3.3.1.2.1.4h-.4v-.2q-.1-.2-.2-.2-.1-.1-.3-.1-.2 0-.3.1-.2.1-.2.3-.1.2-.1.5 0 .5.1.7.2.2.5.2h.3l.2-.2v-.3h.4q0 .2-.1.3 0 .2-.1.3-.1.1-.3.2h-.4q-.3 0-.5-.1zm3.9 0q-.2-.1-.3-.3-.1-.1-.1-.4 0-.3.1-.5t.3-.3q.2-.1.4-.1t.4.1q.2.1.3.3v.5H149v.3l.2.2q.1.1.2.1.2 0 .3-.1.1-.1.1-.2h.3q0 .2-.1.3-.1.1-.3.2h-.3q-.2 0-.4-.1zm0-.9h.8v-.2l-.2-.2h-.4l-.2.2v.2zm1.8.9q-.2-.1-.3-.3-.1-.1-.1-.4 0-.3.1-.5t.2-.3q.2-.1.5-.1.2 0 .3.1.1 0 .2.2.1.1.2.3h-.3q-.1-.1-.1-.2-.1 0-.1-.1h-.2q-.2 0-.4.1-.1.2-.1.5t.1.4q.2.2.4.2.1 0 .2-.1l.1-.1q0-.1.1-.1h.2q0 .1-.1.3l-.2.2h-.3q-.3 0-.4-.1zm1.7-.4v.5h-.3v-2.4h.3v1.5l.8-.8h.4l-.6.7.6 1h-.4l-.5-.8zm1.5-1.5v-.4h.4v.4zm.3.3v1.7h-.3v-1.7zm.4 1.7v-1.7h.4v.3q0-.1.1-.2l.1-.1h.3q.1 0 .3.1.1 0 .2.2.1.1.1.3v1.1h-.4v-1.1q0-.2-.1-.2-.1-.1-.2-.1h-.2q-.1 0-.2.1v1.3zm3.2.4q-.2.2-.7.2-.4 0-.6-.2-.2-.1-.2-.3v-.1l.1-.1.1-.1h.1l-.1-.1q-.1-.1-.1-.2l.1-.1q.1-.1.2-.1l-.2-.2q-.1-.1-.1-.3 0-.1.1-.3.1-.1.3-.1.1-.1.4-.1h.2q.1.1.2.1h.1q.1 0 .2-.1h.1l.1-.1v.3l-.3.1v.5q-.1.1-.3.2-.1.1-.4.1H156.9q-.1 0-.1.1h.4l.1.1h.2q.3 0 .4.1.2.1.2.3 0 .3-.2.4zm-.4-1.3q.1-.1.1-.3 0-.1-.1-.2t-.3-.1q-.1 0-.2.1t-.1.2q0 .2.1.3h.5zm-.6 1.2h.7q.1-.1.1-.2v-.2h-.2l-.5-.1q-.1 0-.1.1h-.1q-.1.1-.1.2t.2.2z" class="p"/><path fill-rule="evenodd" d="M130.6-26.7v-.5l-.1-.1q-.4 0-.8-.2-.4-.3-.5-.9l.7-.1q.1.4.3.6.3.1.7.1h.5q.2-.1.3-.3.1-.1.1-.3 0-.3-.1-.5-.2-.1-.6-.2l-.7-.2q-.5-.1-.8-.4-.3-.3-.3-.7 0-.4.2-.7.2-.3.6-.4l.1-.1q.2 0 .4-.1v-.6h.6v.6h.1l.4.2q.4.1.5.4.2.3.2.6l-.6.1q-.1-.4-.3-.6-.2-.2-.6-.2-.1 0-.3.1-.2 0-.3.1l-.2.2q-.1.2-.1.3 0 .2.2.4.1.1.5.2l.8.2q.5.2.8.5.2.3.2.8 0 .3-.2.6t-.5.4l-.2.1h-.3l-.1.1v.5zm3.2-.6v-3.4h-.8v-.4q.4 0 .6-.1.2 0 .3-.1.1-.2.1-.3h.5v4.3zm2.4-.1-.6.9h-.2l.3-.8h-.3v-.7h.8zm1.4 0q-.3-.1-.5-.4-.3-.3-.3-.6h.6q.1.3.3.4.2.2.6.2.3 0 .6-.2.3-.1.4-.5.1-.4.1-1.1l-.2.4q-.2.2-.4.3h-.5q-.4 0-.8-.1-.3-.2-.5-.5t-.2-.8q0-.4.2-.7.2-.4.5-.5.4-.2.9-.2t.9.2q.3.3.5.8t.2 1.1q0 .8-.2 1.3t-.6.8q-.4.3-.9.3-.4 0-.7-.2zm.1-2.2q.3.2.7.2.2 0 .4-.1t.3-.3q.2-.1.2-.3 0-.4-.1-.6l-.4-.4q-.2-.1-.4-.1-.3 0-.5.1t-.3.3q-.1.2-.1.5 0 .4.2.7zm3.6 2.3v-3.4h-.8v-.4q.4 0 .6-.1.2-.1.3-.2.1-.1.1-.3h.5v4.4zm3-4.4v4.4h-.6v-3.4h-.8v-.4q.3 0 .6-.1.2-.1.3-.2.1-.1.1-.3zm.9 4.4v-.8h.8v.8zm3.9-1.1v1.1h-.6v-1.1h-2.1v-.6l2.1-2.7h.6v2.8h.7v.5zm-.6-2.5-1.4 2h1.4zm3.2-.9v4.4h-.7v-3.4h-.8v-.4q.4 0 .6-.1.2 0 .3-.2.1-.1.1-.3z" class="q"/><path d="M123.2-13.1c0-2.2 1.8-4 4-4h71.7c2.2 0 4 1.8 4 4V1.2c0 2.2-1.8 4-4 4h-71.7c-2.2 0-4-1.8-4-4z" class="o"/><path fill-rule="evenodd" d="M141.9-8.7V-9q0-.2.1-.3.1-.2.2-.3.1-.1.2-.1.2-.1.3-.2.1 0 .2-.1.2-.1.2-.2.1-.1.1-.2 0-.2-.1-.3-.2-.1-.4-.1t-.3.1q-.1.1-.2.4h-.3q0-.2.1-.4t.3-.3q.2-.1.5-.1.2 0 .4.1t.3.2q.1.2.1.4t-.1.3l-.2.2-.2.2q-.2.1-.3.1l-.2.2q-.1 0-.2.1t-.1.2v.1h1.3v.3zm-13 0 .8-2.4h.4l.9 2.4h-.4l-.2-.6h-.9l-.3.6zm1.1-2-.4 1.1h.7zm2.4 1.9q-.2.1-.4.1t-.4-.1q-.2-.1-.3-.3-.1-.2-.1-.5 0-.2.1-.4t.3-.3q.2-.1.4-.1h.4l.2.2q.1.2.1.3h-.3l-.1-.1q0-.1-.1-.1-.1-.1-.2-.1-.2 0-.3.2-.1.1-.1.4 0 .3.1.5.1.1.3.1h.2q.1-.1.2-.1v-.2h.3q0 .2-.1.3-.1.2-.2.2zm.9 0q-.2-.1-.3-.3-.1-.2-.1-.5 0-.2.1-.4t.3-.3q.2-.1.4-.1h.4l.2.2q.1.2.1.3h-.3l-.1-.1q0-.1-.1-.1-.1-.1-.2-.1-.2 0-.3.2-.1.1-.1.4 0 .3.1.5.1.1.3.1h.2q.1-.1.2-.1v-.2h.3q0 .2-.1.3-.1.2-.2.2-.2.1-.4.1t-.4-.1zm2.5 0q-.1.1-.4.1-.2 0-.4-.1t-.3-.3q-.1-.2-.1-.5 0-.2.1-.4t.3-.3q.2-.1.4-.1.3 0 .4.1.2.1.3.3.1.2.1.4 0 .3-.1.5t-.3.3zm-.1-.2q.1-.1.1-.3.1-.1.1-.3 0-.1-.1-.3 0-.1-.1-.2t-.3-.1q-.1 0-.2.1l-.2.2v.6q.1.2.2.2.1.1.2.1h.3zm1.6.3h-.4q-.1-.1-.2-.1l-.2-.2V-10.4h.3v1.1q0 .1.1.2t.3.1q.2 0 .3-.1.1 0 .1-.2v-1.1h.3v1.7h-.2l-.1-.4q0 .2-.1.2l-.2.2zm1 0v-1.7h.4v.2l.1-.1q.1-.1.2-.1h.5l.2.2q.1.2.1.4v1.1h-.4v-1.1q0-.2-.1-.3-.1-.1-.2-.1t-.2.1-.2.1v1.3zm2.5 0h-.1q-.2 0-.3-.1-.1 0-.1-.1-.1-.1-.1-.3v-1h-.3v-.2h.3l.1-.5h.3v.5h.3v.2h-.3V-9H140.9v.2q0 .1-.1.1zm5.1-.1q-.2.1-.4.1h-.4q-.1-.1-.3-.2l-.2-.2q-.1-.1-.1-.3h.4q0 .2.1.2l.2.2h.5q.2-.1.2-.2.1 0 .1-.1 0-.2-.1-.2 0-.1-.1-.1-.1-.1-.2-.1l-.5-.1-.4-.2q-.1-.2-.1-.4t.1-.4q.1-.1.3-.2.2-.1.4-.1.3 0 .5.1t.3.2q.1.2.1.4h-.3q0-.2-.1-.3-.1-.1-.2-.1h-.4q-.1 0-.2.1-.1 0-.1.1V-10.3q.1.1.3.2l.5.1q.2 0 .3.1.1.1.1.2.1 0 .1.1l.1.2q0 .2-.2.4-.1.1-.3.2zm1 0q-.1 0-.2-.1t-.1-.3q0-.3.2-.4.2-.2.6-.2h.3v-.1q0-.1-.1-.2 0-.1-.2-.1t-.3.1q-.1 0-.1.2h-.3q0-.2.1-.3l.2-.2h.8l.2.2q.1.1.1.3v1.2h-.3l-.1-.3-.2.2q-.1.1-.3.1-.2 0-.3-.1zm.1-.2q.1.1.3.1.1 0 .1-.1.1 0 .2-.1l.1-.1v-.4h-.2q-.2 0-.3.1-.1 0-.2.1v.4zm1.9.3-.6-1.7h.3l.4 1.2.5-1.2h.3l-.6 1.7zm1.5-2.4v.4h-.3v-.4zm-.4 2.4v-1.7h.3v1.7zm1.2-1.1v1.1h-.4v-1.7h.4v.2l.1-.1q.1-.1.2-.1h.5l.2.2q.1.2.1.4v1.1h-.4v-1.1q0-.2-.1-.3-.1-.1-.2-.1t-.2.1q-.1 0-.1.1-.1 0-.1.2zm1.6 1.5q-.2-.1-.2-.3v-.2l.1-.1h.1l.1-.1h-.1l-.1-.1v-.1q0-.1.1-.1 0-.1.2-.1-.2-.1-.2-.2-.1-.2-.1-.3 0-.2.1-.3l.2-.2h.7q.1 0 .2.1h.1l.1-.1h.2l.1-.1v.3l-.3.1v.2q0 .1-.1.3 0 .1-.2.2h-.5q-.2 0-.2.1h-.1q0 .1.1.1H153.7q.3 0 .4.2.2.1.2.3 0 .2-.3.4-.2.1-.6.1-.4 0-.6-.1zm.3-1.4q.1.1.3.1.2 0 .3-.1.1-.1.1-.2 0-.2-.1-.3h-.6q-.1.1-.1.3 0 .1.1.2zm.7 1.2q.1 0 .1-.1t-.1-.2q0-.1-.2-.1H153q0 .1-.1.1v.1q0 .2.1.2.2.1.5.1.2 0 .3-.1zm1.8-.3q-.2.1-.4.1t-.3-.1-.3-.1q-.1-.2-.1-.3h.3q0 .1.1.1l.1.1h.5q.1-.1.1-.2t-.1-.1q0-.1-.2-.1l-.3-.1q-.2 0-.3-.1-.1-.1-.1-.3v-.3q.1-.1.3-.2h.3q.3 0 .5.1.1.1.1.3h-.3q0-.1-.1-.1 0-.1-.2-.1-.1 0-.2.1-.1 0-.1.1v.2h.2l.4.1q.1.1.2.1 0 .1.1.1 0 .1.1.2v.1q0 .1-.1.3-.1.1-.2.1z" class="p"/><path fill-rule="evenodd" d="M131.2-1.2v.5h-.6v-.5l-.1-.1q-.4 0-.8-.2-.4-.3-.5-.9l.7-.1q.1.4.3.6.3.1.7.1h.5q.2-.1.3-.3.1-.1.1-.3 0-.3-.1-.5-.2-.1-.6-.2l-.7-.2q-.5-.1-.8-.4-.3-.3-.3-.7 0-.4.2-.7.2-.3.6-.4l.1-.1q.2 0 .4-.1v-.6h.6v.6h.1l.4.2q.4.1.5.4.2.3.2.6l-.6.1q-.1-.4-.3-.6-.2-.2-.6-.2-.1 0-.3.1-.2 0-.3.1l-.2.2q-.1.2-.1.3 0 .2.2.4.1.1.5.2l.8.2q.5.2.8.5.2.3.2.8 0 .3-.2.6t-.5.4l-.2.1h-.3zm4.9-.6v.6h-3v-.6q0-.3.2-.5.1-.3.3-.5.2-.1.4-.3.3-.1.5-.3.3-.1.5-.2l.3-.3q.1-.2.1-.5t-.2-.5q-.2-.2-.6-.2-.4 0-.6.3-.3.2-.3.6h-.7q.1-.4.2-.7.2-.3.6-.5.3-.2.8-.2t.8.1q.4.2.5.5.2.3.2.6 0 .4-.1.6-.1.3-.3.4-.2.2-.5.3-.2.2-.5.3-.2.1-.4.3-.2.1-.3.3-.2.1-.2.4zm1 .1q-.5-.6-.5-1.7 0-.7.2-1.2t.6-.8q.3-.2.8-.2.7 0 1.2.5.4.6.4 1.7t-.4 1.7q-.4.6-1.2.6-.7 0-1.1-.6zm.4-.4q.3.4.7.4.5 0 .7-.4.2-.4.2-1.3t-.2-1.3q-.2-.4-.7-.4-.4 0-.7.4-.2.4-.2 1.3t.2 1.3zm2.8 1.7.3-.8h-.3v-.7h.8v.6l-.6.9zm4.1-1.9v1.1h-.6v-1.1h-2.1v-.5l2-2.8h.7v2.8h.7v.5zm-.6-2.4-1.5 1.9h1.5zm3.3 2.9q-.1.3-.1.6h-.7q0-.3.1-.7.1-.4.3-1 .2-.5.5-1 .3-.6.7-1.1h-2.4v-.6h3.1v.6q-.2.3-.5.7l-.4.8q-.2.4-.3.9-.2.4-.3.8zm2.9.5q-.3-.1-.6-.3-.2-.3-.3-.6l.5-.3q.1.3.3.4.1.2.3.3.3.1.5.1.5 0 .7-.2.3-.3.3-.7 0-.3-.1-.5t-.4-.3q-.2-.1-.4-.1h-.3q-.2.1-.3.1-.2.1-.3.3h-.1l-.5-.2.2-2.3h2.6v.6H150l-.1 1.3q.2-.2.5-.3h.5q.4 0 .8.1.3.2.5.5t.2.8q0 .4-.2.8-.2.3-.6.5-.3.2-.8.2-.4 0-.8-.2zm3.7-.7v.8h-.8V-2zm1 .3q-.4-.6-.4-1.7 0-.7.2-1.2t.5-.8q.4-.2.9-.2.7 0 1.1.6.4.5.4 1.6t-.4 1.7q-.4.6-1.2.6-.7 0-1.1-.6zm.5-.4q.2.4.7.4.4 0 .6-.4.2-.4.2-1.3t-.2-1.3q-.2-.4-.7-.4-.4 0-.6.4-.3.4-.3 1.3t.3 1.3zm3.1.4q-.4-.6-.4-1.7 0-.7.2-1.2t.5-.8q.4-.2.9-.2.7 0 1.1.6.4.5.4 1.6t-.4 1.7q-.4.6-1.1.6-.8 0-1.2-.6zm.5-.4q.2.4.7.4.4 0 .6-.4.3-.4.3-1.3t-.3-1.3q-.2-.4-.6-.4-.5 0-.7.4-.2.4-.2 1.3t.2 1.3z" class="q"/><path d="M117.9-125.5h90.8V5h-90.8z" style="opacity:.5"/><path d="M117.9 5.2H208v91h-90.1z" class="o"/><path d="M123.1 39.5c0-6.6 5.4-12 12-12h55.7c6.6 0 12 5.4 12 12v5.7c0 6.6-5.4 12-12 12h-55.7c-6.6 0-12-5.4-12-12z" style="fill:url(#g13)"/><path fill-rule="evenodd" d="M135.9 40.5h-.3l-.1-.1q-.1-.1-.1-.2v-2.1h.4v2.1q0 .1.1.1h.1v.2h-.1zm-6.3 0v-2h-.8v-.3h1.8v.3h-.7v2zm1.4-.1q-.2-.1-.3-.3-.1-.2-.1-.4 0-.3.1-.5t.3-.3q.1-.1.4-.1.2 0 .4.1t.3.3q.1.2.1.5 0 .2-.1.4t-.3.3q-.2.1-.4.1-.3 0-.4-.1zm.1-.2q.1.1.3.1.1 0 .2-.1l.2-.2v-.6q-.1-.2-.2-.3h-.5q-.1.1-.1.2-.1.2-.1.4 0 .1.1.3 0 .1.1.2zm1.7.3-.2-.2v-1.2h-.3v-.3h.3l.1-.5h.2v.5h.4v.3h-.4v1l.1.1.1.1h.2v.2h-.5zm1.7 0H133.9q-.2-.1-.2-.2-.1-.1-.1-.3 0-.2.2-.4.2-.1.6-.1h.3v-.2q0-.1-.1-.2t-.3-.1q-.1 0-.2.1t-.1.2h-.3q0-.2.1-.3 0-.1.2-.2h.7q.2.1.3.2v1.5h-.3v-.3q-.1.2-.2.3zm-.1-.2.1-.1q.1-.1.2-.1v-.4h-.5q-.2 0-.2.1-.1.1-.1.2t.1.2q.1.1.3.1h.1zm3.1.1-.4-.4q-.1-.3-.1-.7 0-.4.1-.6.2-.3.4-.4.2-.2.5-.2t.5.1q.2.1.3.3.1.2.1.4h-.3q-.1-.1-.1-.3-.1-.1-.2-.1-.1-.1-.3-.1-.2 0-.3.1-.2.1-.2.3-.1.2-.1.5 0 .5.2.7.1.2.4.2h.3l.2-.2q0-.1.1-.3h.3v.3q-.1.2-.2.3-.1.1-.3.2h-.4q-.3 0-.5-.1zm2.2-1.2q-.1.1-.1.2v1.1h-.3v-2.4h.3v1q.1-.1.1-.2.1 0 .2-.1h.2q.2 0 .3.1.2 0 .2.1.1.2.1.3v1.2h-.3v-1.1q0-.2-.1-.2-.1-.1-.3-.1h-.2q-.1 0-.1.1zm1.7 1.2q-.2-.1-.3-.3-.1-.2-.1-.4 0-.3.1-.5t.3-.3q.2-.1.4-.1.3 0 .4.1.2.1.3.3.1.2.1.4v.1h-1.2v.3l.2.2q.1.1.2.1.2 0 .3-.1.1-.1.1-.2h.4q-.1.2-.2.3l-.2.2h-.4q-.2 0-.4-.1zm0-.9h.8v-.2q-.1-.1-.1-.2-.1-.1-.3-.1-.1 0-.2.1l-.2.2v.2zm1.8.9q-.2-.1-.3-.3-.1-.2-.1-.4 0-.3.1-.5t.3-.3q.1-.1.4-.1.2 0 .3.1.2 0 .3.2 0 .1.1.3h-.3q0-.1-.1-.2 0-.1-.1-.1h-.2q-.2 0-.3.1-.2.2-.2.5 0 .2.2.4.1.2.3.2.1 0 .2-.1.1 0 .1-.1l.1-.1h.3q-.1.1-.1.3-.1.1-.3.2h-.3q-.2 0-.4-.1zm1.7-.4v.5h-.3v-2.4h.3v1.5l.8-.8h.4l-.6.7.6 1h-.3l-.5-.8zm1.4-1.5v-.4h.4v.4zm.3.3v1.7h-.3v-1.7zm.4 1.7v-1.7h.4v.2l.1-.1q.1 0 .2-.1h.5l.2.2q.1.2.1.4v1.1h-.4v-1.1q0-.2-.1-.2-.1-.1-.2-.1h-.2q-.1 0-.2.1v1.3zm3.2.4q-.2.1-.6.1-.5 0-.7-.1-.2-.1-.2-.3v-.1l.1-.1q.1-.1.2-.1l-.1-.1v-.1q-.1 0-.1-.1l.1-.1q.1-.1.2-.1l-.2-.2q-.1-.1-.1-.3 0-.2.1-.3.1-.1.3-.2H149.8q.2.1.3.1.1 0 .2-.1h.1l.1-.1v.3l-.3.1v.1l.1.1q0 .2-.1.3-.1.1-.3.2h-.5q-.1 0-.2.1v.1h.4q.1 0 .2.1.3 0 .5.1.1.1.1.3 0 .2-.2.4zm-.4-1.3q.1-.1.1-.3 0-.1-.1-.2t-.2-.1q-.2 0-.3.1-.1.1-.1.2 0 .2.1.2.1.1.3.1h.2zm-.6 1.2h.7q.2-.1.2-.2t-.1-.2q-.1 0-.2-.1h-.6l-.1.1q-.1.1-.1.2t.2.2zM132.4 49.9v.8h-.9v-.8l-.2-.1q-.7-.1-1.2-.4-.7-.4-.8-1.4h1q.2.5.6.8.4.3 1 .3.4 0 .7-.2.3-.1.5-.3.2-.3.2-.6 0-.4-.2-.6-.3-.3-.8-.4l-1.2-.3q-.7-.2-1.2-.6-.4-.4-.4-1.1 0-.6.3-1.1.3-.4.9-.7h.1q.3-.1.7-.2v-.9h.9v.9h.1q.4.1.7.3.5.2.8.7.2.4.3.9l-1 .1q-.1-.6-.4-.9-.4-.3-.9-.3-.3 0-.6.1l-.4.2q-.2.1-.3.3-.1.2-.1.5-.1.3.2.5.2.2.9.4l1.1.3q.8.2 1.2.7.4.5.4 1.2 0 .6-.3 1t-.9.6l-.1.1q-.3.1-.7.2zm7.6-1v.9h-4.6v-.9q0-.5.2-.9.2-.3.5-.6t.7-.5q.3-.2.7-.4.4-.2.7-.5.3-.2.5-.4.2-.3.2-.7 0-.5-.3-.8-.4-.3-1-.3t-1 .4q-.3.3-.4.9h-1q0-.6.3-1 .3-.5.8-.8.6-.3 1.4-.3.7 0 1.2.2.5.3.8.7.2.4.2 1 0 .5-.1.9-.2.4-.5.6-.3.3-.7.5l-.8.4-.6.4q-.4.2-.5.5-.2.2-.2.6v.1zm.7 2.1.5-1.2h-.4v-1.1h1.1v.9l-.8 1.4zm6.2-1.4q-.6.3-1.4.3-.8 0-1.3-.3-.6-.2-1-.6-.3-.5-.3-1 0-.4.2-.8.2-.3.5-.6.3-.2.7-.3-.5-.2-.8-.6-.3-.3-.3-.9 0-.6.3-1t.8-.6q.6-.2 1.2-.2.7 0 1.2.2t.8.6q.3.4.3 1t-.3.9q-.3.4-.7.6.3.1.6.3.3.3.5.6.2.4.2.8 0 .5-.3 1-.3.4-.9.6zm-.5-4q.4-.3.4-.8t-.4-.8q-.3-.3-.9-.3-.6 0-.9.3-.4.3-.4.8t.4.8q.3.3.9.3.6 0 .9-.3zm-2 3.2q.4.3 1.1.3.7 0 1.1-.3.4-.3.4-.9 0-.3-.1-.6-.2-.3-.6-.4-.3-.2-.8-.2-.4 0-.8.2-.3.1-.5.4-.2.3-.2.6 0 .6.4.9zm5.7 1v-5.3h-1.3v-.6q.6 0 1-.1.3-.1.4-.3.2-.2.2-.4h.7v6.7zm6.7-.8q-.7.9-1.8.9-1.2 0-1.8-.9-.7-.9-.7-2.6 0-1.1.3-1.9.3-.7.9-1.1.5-.4 1.3-.4 1.1 0 1.8.9.6.8.6 2.5t-.6 2.6zm-.8-.6q.4-.6.4-2t-.4-2q-.3-.6-1-.6t-1.1.6q-.3.6-.3 2t.3 2q.4.6 1.1.6.7 0 1-.6zm3.3.2v1.2h-1.1v-1.2zm2.3 1.1q-.5-.2-.9-.6-.4-.4-.5-.9l.8-.4q.1.4.4.7.2.2.6.4.3.2.7.2.7 0 1.1-.4.5-.4.5-1.1 0-.4-.2-.7-.2-.3-.6-.5-.3-.2-.7-.2-.3 0-.5.1-.2 0-.4.2-.2.1-.5.3h-.1l-.8-.3.3-3.4h4.1v.8h-3.3l-.1 2q.3-.2.7-.4.4-.1.8-.1.6 0 1.2.3.5.2.8.7.3.5.3 1.2t-.3 1.2q-.3.5-.9.8-.5.3-1.3.3-.6 0-1.2-.2zm8.4-.1q-.6.3-1.3.3-.6 0-1.2-.2-.5-.2-.9-.6-.4-.4-.6-.9l.9-.4q.1.4.4.7.2.2.5.4.4.2.8.2.7 0 1.1-.4.4-.4.4-1.1 0-.4-.2-.7-.2-.3-.5-.5t-.7-.2q-.3 0-.5.1-.2 0-.4.2-.3.1-.5.3h-.1l-.8-.3.3-3.4h4.1l-.1.8h-3.2l-.2 2 .8-.4q.4-.1.8-.1.6 0 1.1.3.6.2.9.7.3.5.3 1.2t-.3 1.2q-.3.5-.9.8z" class="o"/><path d="M153.3 14.7c0-3.1 2.5-5.6 5.6-5.6h8.3c3.1 0 5.6 2.5 5.6 5.6 0 3.1-2.5 5.6-5.6 5.6h-8.3c-3.1 0-5.6-2.5-5.6-5.6z" style="fill:url(#g14)"/><path fill-rule="evenodd" d="m164.7 12.6-2.2 4.4h-1.3l2.1-4.4z" class="o"/><path fill-rule="evenodd" d="m166.4 14.3-.7 1.1h-5.9l.7-1.1z" class="o"/></g><path fill-rule="evenodd" d="M238.9-12.8H313c7.1 0 12.8 5.6 12.8 12.4v169.8c0 6.8-5.7 12.4-12.8 12.4h-74.1c-7.1 0-12.9-5.6-12.9-12.4V-.4c0-6.8 5.8-12.4 12.9-12.4z" class="a"/><path fill-rule="evenodd" d="M322.9-8.2c-1.9-1.7-5.3-3.9-9.7-3.9h-74.6c-4.4 0-7.8 2.2-9.7 3.9q4.4-4.5 9.7-4.8h74.7q5.2.3 9.6 4.8z" style="opacity:.4;fill:url(#g15)"/><path fill-rule="evenodd" d="M313.3 181.8h-74.7c-3.7-.2-6.8-1.5-9.3-4.1 1.9 1.5 4.9 3.2 9.3 3.2h74.6c4.4 0 7.6-1.9 9.5-3.5-2.5 2.9-5.7 4.2-9.4 4.4z" style="opacity:.5;fill:url(#g16)"/><path fill-rule="evenodd" d="M229.9 178.2c2.1 1.7 4.8 2.7 7.7 2.7H315c2.6 0 5-.8 6.9-2.1-2.2 2-5.1 3.2-8.3 3.2h-74.8c-3.5 0-6.7-1.5-8.9-3.8z" style="opacity:.6;fill:url(#g17)"/><path fill-rule="evenodd" d="M323.8 167.4V.6c0-4.4-1.6-6.1-2.6-7.1-1-1.1-1-1.7.4-.9 1.4.9 4.2 3.2 4.2 8v166.8c0 4.9-2.8 7.2-4.2 8-1.4.8-1.4.3-.4-.8 1-1 2.6-2.7 2.6-7.2z" style="opacity:.7;fill:url(#g18)"/><path fill-rule="evenodd" d="M230.6 174.6c1 1.1 1 1.6-.4.8s-4.2-3.1-4.2-8V.6c0-4.8 2.8-7.1 4.2-8 1.4-.8 1.4-.2.4.9-1 1-2.6 2.7-2.6 7.1v166.8c0 4.5 1.6 6.2 2.6 7.2z" style="opacity:.7;fill:url(#g19)"/><path d="M275.8-3.9c-1.1 0-1.9-.8-1.9-1.8s.8-1.9 1.9-1.9c1.1 0 1.9.9 1.9 1.9 0 1-.8 1.8-1.9 1.8z" class="g"/><path d="M275.8-3.9c-1.1 0-1.9-.8-1.9-1.8s.8-1.9 1.9-1.9c1.1 0 1.9.9 1.9 1.9 0 1-.8 1.8-1.9 1.8z" style="opacity:.5"/><g style="opacity:.7"><path d="M275.8-4.4c-.8 0-1.4-.6-1.4-1.3 0-.8.6-1.4 1.4-1.4.8 0 1.4.6 1.4 1.4 0 .7-.6 1.3-1.4 1.3z" class="h"/><path d="M275.8-4.9c-.5 0-.9-.4-.9-.8 0-.5.4-.9.9-.9s.9.4.9.9c0 .4-.4.8-.9.8z" class="i"/><path d="M275.8-5.4c-.2 0-.4-.1-.4-.3 0-.2.2-.4.4-.4s.4.2.4.4-.2.3-.4.3z" class="j"/><path d="M275.4-5.9c-.1 0-.3-.1-.3-.2s.2-.3.3-.3c.2 0 .3.2.3.3 0 .1-.1.2-.3.2z" class="k"/></g><path fill-rule="evenodd" d="M270.3-5.2c1.1 2.9 3.5 3.8 4.4 3.8h2.2c1.8 0 3.5-1.7 4.4-3.8.8-2.1 2.8-2.9 3-2.9h29.2c4.1 0 7.5 2.6 7.5 7.2v164.3c0 5-5.1 9.5-10.3 9.5h-69.5c-5.5 0-10.3-4.5-10.3-9.5V-1.3c0-3.9 3.1-6.8 7.4-6.8h28.8c.1 0 2 0 3.2 2.9z" class="l"/><g clip-path="url(#cp3)"><path d="M230.9-8H321v180.8h-90.1z" class="m"/><path d="M230.9-8H321v41.8h-90.1z" style="fill:url(#g20)"/><path d="M236.1 27.2c0-2.2 1.8-4 4-4h71.7c2.2 0 4 1.8 4 4v14.3c0 2.2-1.8 4-4 4h-71.7c-2.2 0-4-1.8-4-4z" class="o"/><path fill-rule="evenodd" d="M259.4 30.5v1.1h-.3v-2.4h.3v.9l.1-.1q.1-.1.2-.1h.5l.2.2q.1.1.1.3v1.2h-.3v-1.2q0-.1-.1-.2h-.5q-.1 0-.1.1-.1.1-.1.2zm-2.1 1q-.3-.2-.4-.5-.1-.2-.1-.6 0-.4.1-.7.1-.2.4-.4.2-.1.5-.1t.5.1q.2.1.3.3.1.1.1.4h-.4v-.3l-.2-.2h-.3q-.2 0-.3.1-.2.1-.3.3v.5q0 .5.1.7.2.2.5.2.2 0 .3-.1.1 0 .2-.1v-.3h.4q0 .2-.1.3 0 .2-.1.3-.1.1-.3.1-.2.1-.4.1-.3 0-.5-.1zm-14.8-.5-.3.6h-.3l.8-2.4h.4l.8 2.4h-.3l-.2-.6zm.1-.4h.7l-.4-1zm2 .8q-.2-.1-.3-.3-.1-.2-.1-.4 0-.3.1-.5t.3-.3q.1-.1.4-.1.2 0 .3.1.2 0 .3.2.1.1.1.3h-.3q0-.1-.1-.2 0-.1-.1-.1h-.2q-.2 0-.3.1-.2.2-.2.5 0 .2.2.4.1.2.3.2.1 0 .2-.1.1 0 .1-.1l.1-.1h.3q0 .1-.1.3-.1.1-.3.2h-.3q-.2 0-.4-.1zm2.4.1h-.3q-.2 0-.4-.1t-.3-.3q-.1-.2-.1-.4 0-.3.1-.5t.3-.3q.1-.1.4-.1.2 0 .3.1.2 0 .3.2.1.1.1.3h-.3q0-.1-.1-.2 0-.1-.1-.1h-.2q-.2 0-.3.1-.2.2-.2.5 0 .2.2.4.1.2.3.2.1 0 .2-.1.1 0 .1-.1l.1-.1h.3q0 .1-.1.3-.1.1-.3.2zm1-.1q-.2-.1-.3-.3-.1-.2-.1-.4 0-.3.1-.5t.3-.3q.1-.1.4-.1.2 0 .4.1t.3.3q.1.2.1.5 0 .2-.1.4t-.3.3q-.2.1-.4.1t-.4-.1zm.1-.2q.1.1.3.1.1 0 .2-.1l.2-.2v-.7l-.2-.2q-.1-.1-.2-.1-.2 0-.2.1l-.2.2v.7q0 .1.1.2zm1.7.3q-.1 0-.2-.1t-.1-.2-.1-.2v-1.2h.4v1.1q0 .2.1.3.1.1.3.1.1 0 .2-.1t.1-.3v-1.1h.4v1.7h-.3v-.3q0 .1-.1.2t-.2.1h-.5zm1.8-1.1v1.1h-.3v-1.7h.3v.3q.1-.1.1-.2.1 0 .2-.1h.3q.1 0 .2.1.2 0 .3.2V31.5h-.3v-1.1q0-.2-.1-.2-.1-.1-.3-.1h-.1q-.1 0-.2.1t-.1.2zm1.8 1.1q-.1-.1-.1-.2-.1-.1-.1-.2v-1h-.2v-.3h.2l.1-.5h.3v.5h.4v.3h-.4v1.1h.4v.3H253.4zm2.3-2.4v2.4h-.3v-1.8h-.5v-.3h.3q.2 0 .2-.1.1-.1.1-.2zm5.6 2.3q-.2-.1-.3-.3-.1-.2-.1-.4 0-.3.1-.5t.2-.3q.2-.1.5-.1.2 0 .4.1.1.1.2.3.1.2.1.4v.1h-1.2q0 .2.1.3 0 .1.1.2t.3.1q.1 0 .2-.1l.2-.2h.3q0 .2-.1.3-.1.1-.3.2h-.3q-.3 0-.4-.1zm-.1-.9h.9q0-.1-.1-.2 0-.1-.1-.2t-.2-.1q-.2 0-.3.1-.1.1-.1.2-.1.1-.1.2zm1.8.9q-.2-.1-.3-.3-.1-.2-.1-.4 0-.3.1-.5t.3-.3q.2-.1.4-.1t.4.1q.1 0 .2.2.1.1.1.3h-.3q0-.1-.1-.2 0-.1-.1-.1h-.2q-.2 0-.3.1-.1.2-.1.5 0 .2.1.4t.3.2q.1 0 .2-.1.1 0 .1-.1l.1-.1h.3q0 .1-.1.3l-.2.2h-.4q-.2 0-.4-.1zm1.8-.4v.5h-.4v-2.4h.4v1.5l.7-.8h.4l-.6.7.7 1h-.4l-.5-.8zm1.5-1.5v-.4h.3v.4zm.4.3v1.7h-.4v-1.7zm.5 1.7v-1.7h.3v.2q.1 0 .1-.1.1 0 .2-.1h.5q.2.1.2.2.1.2.1.4v1.1h-.3v-1.1q0-.2-.1-.3h-.5q-.1 0-.1.1-.1.1-.1.2v1.1zm3.2.4q-.2.1-.6.1-.4 0-.6-.1-.3-.1-.3-.3 0-.1.1-.1 0-.1.1-.2h.1l.1-.1h-.1q-.1 0-.1-.1V31q0-.1.1-.1 0-.1.2-.1-.2-.1-.3-.2v-.3q0-.2.1-.3 0-.1.2-.2h.7q.1 0 .2.1h.1l.1-.1h.1l.1-.1v.3l-.3.1q.1 0 .1.1v.1q0 .2-.1.3l-.2.2h-.5q-.2 0-.2.1h-.1q0 .1.1.1H270.1l.4.2q.1.1.1.3 0 .2-.2.4zm-.3-1.4q.1 0 .1-.2 0-.1-.1-.2t-.3-.1q-.2 0-.3.1-.1.1-.1.2 0 .2.1.2.1.1.3.1.2 0 .3-.1zm-.7 1.3h.8q.1-.1.1-.2t-.1-.2l-.2-.1H269.4q0 .1-.1.1v.2q0 .1.1.2z" class="p"/><path fill-rule="evenodd" d="M244.1 39v.6h-.6V39h-.1q-.4 0-.8-.2-.4-.3-.5-.9l.7-.1q.1.4.3.5.3.2.7.2.3 0 .5-.1.2 0 .3-.2.1-.1.1-.3 0-.3-.1-.5-.2-.1-.6-.2l-.7-.2q-.5-.1-.8-.4-.3-.3-.3-.7 0-.4.2-.7.2-.3.6-.5h.1q.2-.1.4-.1V34h.6v.6h.1q.2 0 .4.2.4.1.5.4.2.3.2.6l-.6.1q-.1-.4-.3-.6-.2-.2-.6-.2-.1 0-.3.1-.2 0-.3.1l-.2.2q-.1.1-.1.3 0 .2.2.4.1.1.5.2l.8.2q.5.2.8.5.2.3.2.8 0 .3-.2.6t-.5.4h-.2q-.1.1-.3.1zm4.4-.1q-.4.2-.9.2t-.8-.2q-.4-.2-.6-.4-.2-.3-.2-.7 0-.3.1-.5t.3-.4l.4-.2q-.3-.1-.5-.3-.2-.3-.2-.6 0-.4.2-.7.2-.3.6-.4.3-.1.7-.1.5 0 .8.1.3.1.5.4.2.3.2.7 0 .3-.2.6-.1.2-.4.3l.4.2q.2.2.3.4.1.2.1.5 0 .4-.2.7-.2.2-.6.4zm-.3-2.6q.3-.2.3-.6 0-.3-.3-.5-.2-.2-.6-.2-.3 0-.6.2-.2.2-.2.5 0 .4.2.6.3.2.6.2.4 0 .6-.2zm-1.3 2q.3.2.7.2.5 0 .8-.2.2-.2.2-.5 0-.2-.1-.4t-.3-.3q-.3-.1-.6-.1t-.5.1q-.2.1-.3.3-.2.2-.2.4 0 .3.3.5zm3.7.6q-.4-.1-.6-.4-.2-.3-.2-.6h.6q.1.3.3.4.2.2.5.2.4 0 .7-.2.2-.2.4-.5.1-.4.1-1.1-.1.2-.3.4-.1.2-.4.3h-.4q-.5 0-.8-.1-.3-.2-.5-.5t-.2-.8q0-.4.2-.7.2-.4.5-.5.4-.2.8-.2.5 0 .9.2.4.3.6.8.2.5.2 1.1 0 .8-.2 1.3t-.6.8q-.4.3-.9.3-.4 0-.7-.2zm.1-2.2q.2.2.6.2.3 0 .5-.1t.3-.3q.1-.1.1-.3 0-.4-.1-.6-.1-.3-.3-.4-.2-.1-.5-.1-.2 0-.4.1t-.3.3q-.1.2-.1.5 0 .4.2.7zm3.6 2.2q-.4-.1-.6-.4-.2-.3-.2-.6h.6q.1.3.3.4.2.2.5.2.4 0 .7-.2.2-.2.4-.5.1-.4.1-1.1-.1.2-.3.4-.1.2-.4.3h-.5q-.4 0-.7-.1-.3-.2-.5-.5t-.2-.8q0-.4.2-.7.2-.4.5-.5.3-.2.8-.2t.9.2q.4.3.6.8.2.5.2 1.1 0 .8-.2 1.3t-.6.8q-.4.3-.9.3-.4 0-.7-.2zm.1-2.2q.2.2.6.2.3 0 .5-.1t.3-.3q.1-.1.1-.3 0-.4-.1-.6-.1-.3-.3-.4-.2-.1-.5-.1-.2 0-.4.1t-.3.3q-.1.2-.1.5 0 .4.2.7zm2.8 2.3v-.8h.8v.8zm2.7-4.4V39h-.6v-3.4h-.9v-.4q.4 0 .7-.1.2-.1.3-.2.1-.1.1-.3zm2.9 4.4v-1.1h-2v-.6l2-2.7h.7v2.8h.7v.5h-.7V39zm-1.5-1.6h1.4v-2z" class="q"/><path d="M236.1 53.2c0-2.2 1.8-4 4-4h71.7c2.2 0 4 1.8 4 4v14.3c0 2.2-1.8 4-4 4h-71.7c-2.2 0-4-1.8-4-4z" class="o"/><path fill-rule="evenodd" d="M254.9 57.6V57q.1-.2.2-.3.1-.1.2-.1.2-.1.3-.2.1-.1.2-.1.2-.1.2-.2.1-.1.1-.2 0-.2-.1-.3-.1-.1-.4-.1-.2 0-.3.1-.1.1-.2.3h-.3q0-.2.1-.3.1-.2.3-.3.2-.1.5-.1.2 0 .4.1t.3.2q.1.2.1.4 0 .1-.1.3l-.2.2-.2.2q-.2 0-.3.1-.1.1-.2.1l-.2.2q-.1.1-.1.2v.1h1.3v.3zm-13 0 .8-2.4h.4l.9 2.4h-.4l-.2-.6h-.9l-.3.6zm1.1-2-.4 1h.8zm2.3 2q-.2.1-.4.1t-.4-.1q-.2-.1-.3-.3-.1-.2-.1-.5 0-.2.1-.4t.3-.4q.2-.1.4-.1t.4.1l.2.2q.1.1.1.3h-.3q0-.1-.1-.1 0-.1-.1-.1-.1-.1-.2-.1-.2 0-.3.2-.1.1-.1.4 0 .3.1.5.1.1.3.1h.2q.1-.1.2-.1v-.2h.3q0 .2-.1.3l-.2.2zm.9 0q-.2-.1-.3-.3-.1-.2-.1-.5 0-.2.1-.4t.3-.4q.2-.1.4-.1t.4.1l.2.2q.1.1.1.3h-.3q0-.1-.1-.1 0-.1-.1-.1-.1-.1-.2-.1-.2 0-.3.2-.1.1-.1.4 0 .3.1.5.1.1.3.1h.2q.1-.1.2-.1v-.2h.3q0 .2-.1.3l-.2.2q-.2.1-.4.1t-.4-.1zm2.5 0q-.1.1-.4.1-.2 0-.4-.1t-.3-.3q-.1-.2-.1-.5 0-.2.1-.4t.3-.4q.2-.1.4-.1.3 0 .4.1.2.1.3.3.1.2.1.5t-.1.5q-.1.2-.3.3zm-.1-.3q.1 0 .1-.2.1-.1.1-.3 0-.2-.1-.3 0-.1-.1-.2t-.3-.1q-.1 0-.2.1-.1 0-.2.2v.6l.2.2q.1.1.2.1.2 0 .3-.1zm1.6.3q-.1.1-.2.1t-.2-.1-.2-.1-.2-.1V56h.3v1.1q0 .1.1.2t.3.1q.2 0 .3-.1.1-.1.1-.2V56h.3v1.6h-.2l-.1-.3q0 .2-.1.2-.1.1-.2.1zm1 0V56h.4v.2q0-.1.1-.1.1-.1.2-.1.1-.1.2-.1t.3.1l.2.2q.1.1.1.3v1.1h-.4v-1q0-.2-.1-.3-.1-.1-.2-.1t-.2.1-.2.1V57.6zm2.5 0q0 .1-.1.1-.2 0-.3-.1-.1 0-.1-.1-.1-.1-.1-.3v-1h-.3V56h.3l.1-.5h.3v.5h.3v.2h-.3V57.4H253.8v.2h-.1zm5.1 0q-.2.1-.4.1t-.4-.1q-.1 0-.3-.1l-.2-.2q-.1-.1-.1-.3h.4q0 .1.1.2l.2.2h.5q.2-.1.2-.2.1 0 .1-.2v-.1l-.2-.2h-.2l-.4-.1q-.3-.1-.5-.2-.1-.2-.1-.4t.1-.4q.1-.2.3-.2.2-.1.4-.1.3 0 .5.1t.3.2q.1.2.1.4h-.3q0-.2-.1-.3-.1-.1-.2-.1h-.4q-.1 0-.2.1-.1 0-.1.1V56.1q.1.1.3.2h.5q.2.1.3.2.1 0 .1.1.1.1.1.2.1.1.1.2 0 .2-.2.4-.1.1-.3.2zm1 0q-.1 0-.2-.1-.1-.2-.1-.3 0-.3.2-.4.2-.2.7-.2h.2v-.1q0-.2-.1-.2 0-.1-.2-.1h-.3q-.1.1-.1.2h-.3q0-.1.1-.2l.2-.2q.2-.1.4-.1t.4.1l.2.2q.1.1.1.3v1.1h-.3l-.1-.3q-.1.2-.2.3-.1.1-.3.1-.2 0-.3-.1zm.1-.2h.4q.1 0 .2-.1l.1-.1v-.4h-.2q-.2 0-.3.1-.1 0-.2.1v.4zm1.9.2-.6-1.6h.3l.4 1.2.5-1.2h.3l-.6 1.6zm1.5-2.3v.3h-.3v-.3zm-.4 2.3V56h.3v1.6zm1.2-1.1v1.1h-.3V56h.3v.2q0-.1.1-.1.1-.1.2-.1.1-.1.2-.1.2 0 .3.1l.2.2q.1.1.1.3v1.1h-.4v-1q0-.2-.1-.3 0-.1-.2-.1-.1 0-.2.1-.1 0-.1.1-.1 0-.1.1zm1.6 1.6q-.2-.1-.2-.3v-.2l.1-.1h.1l.1-.1h-.1l-.1-.1v-.1q0-.1.1-.2l.2-.1q-.2 0-.2-.2-.1-.1-.1-.2 0-.2.1-.3l.2-.2q.2-.1.4-.1t.3.1q.1 0 .2.1l.1-.1h.1q.1 0 .2-.1h.1v.3l-.3.1v.2q0 .1-.1.2 0 .2-.2.2-.2.1-.4.1H266l-.1.1q0 .1.1.1H266.6q.3 0 .4.2.2.1.2.3 0 .2-.3.4-.2.1-.6.1-.4 0-.6-.1zm.3-1.4q.1.1.3.1.2 0 .3-.1.1-.1.1-.2 0-.2-.1-.3-.1-.1-.3-.1-.2 0-.3.1-.1.1-.1.3 0 .1.1.2zm.7 1.2q.1 0 .1-.2 0-.1-.1-.1 0-.1-.2-.1H265.9l-.1.1v.1q0 .2.1.2.2.1.5.1.2 0 .3-.1zm1.8-.3q-.2.1-.4.1t-.3-.1-.3-.1q-.1-.2-.1-.4h.3q0 .1.1.2l.1.1h.5q.1-.1.1-.2t-.1-.1-.1-.1l-.4-.1q-.2 0-.3-.2-.1-.1-.1-.3v-.2q.1-.1.3-.2.1-.1.3-.1.3 0 .5.2.1.1.1.3h-.3q0-.1-.1-.2h-.4q-.1.1-.1.2v.2h.3l.3.1q.1 0 .2.1l.1.1q0 .1.1.1v.2q0 .1-.1.2-.1.2-.2.2z" class="p"/><path fill-rule="evenodd" d="M244.1 65v.6h-.6V65h-.1q-.4 0-.8-.2-.4-.3-.5-.9l.7-.1q.1.4.3.5.3.2.7.2.3 0 .5-.1.2 0 .3-.2.1-.1.1-.3 0-.3-.1-.5-.2-.1-.6-.2l-.7-.2q-.5-.1-.8-.4-.3-.3-.3-.7 0-.4.2-.7.2-.3.6-.5h.1q.2-.1.4-.1V60h.6v.6h.1q.2 0 .4.2.4.1.5.4.2.3.2.6l-.6.1q-.1-.4-.3-.6-.2-.2-.6-.2-.1 0-.3.1-.2 0-.3.1l-.2.2q-.1.1-.1.3 0 .2.2.4.1.1.5.2l.8.2q.5.2.8.5.2.3.2.8 0 .3-.2.6t-.5.4h-.2q-.1.1-.3.1zm3.5-.7q-.1.4-.2.7h-.7q.1-.3.2-.7.1-.5.3-1 .2-.5.5-1 .3-.6.7-1.1h-2.5v-.6h3.2v.6q-.3.3-.5.7l-.4.8-.4.8q-.1.5-.2.8zm3.8.7v-1.1h-2v-.6l2-2.7h.6v2.8h.7v.5h-.7V65zm-1.4-1.6h1.4v-2zm3.2 2.5.3-.8h-.3v-.7h.8v.6l-.6.9zm2.9-5.2v4.4h-.6v-3.4h-.8v-.4q.3 0 .6-.1.2-.1.3-.2.1-.1.1-.3zm1.7 4.3q-.3-.1-.5-.4-.2-.3-.3-.6h.6q.1.3.3.4.3.2.6.2t.6-.2q.3-.2.4-.6.1-.4.1-1l-.2.4q-.2.2-.4.2-.2.1-.5.1-.4 0-.8-.1-.3-.2-.5-.5t-.2-.8q0-.4.2-.7.2-.4.5-.6.4-.1.9-.1t.9.2q.3.3.5.8.3.4.3 1.1 0 .8-.3 1.3-.2.5-.5.8-.4.2-1 .2-.4 0-.7-.1zm.1-2.2q.3.2.7.2.2 0 .4-.1t.3-.3q.2-.1.2-.3 0-.4-.1-.6-.1-.3-.3-.4-.2-.1-.5-.1t-.5.1q-.2.1-.3.3-.1.2-.1.5 0 .4.2.7zm3.6 2.2q-.3-.1-.5-.4-.3-.3-.3-.6h.6q.1.3.3.4.2.2.6.2.3 0 .6-.2t.4-.6q.1-.4.1-1l-.2.4q-.2.2-.4.2-.2.1-.5.1-.4 0-.8-.1-.3-.2-.5-.5t-.2-.8q0-.4.2-.7.2-.4.5-.6.4-.1.9-.1t.9.2q.3.3.5.8.2.4.2 1.1 0 .8-.2 1.3t-.6.8q-.4.2-.9.2-.4 0-.7-.1zm.1-2.2q.3.2.7.2.2 0 .4-.1t.3-.3q.2-.1.2-.3 0-.4-.1-.6-.2-.3-.4-.4-.2-.1-.4-.1-.3 0-.5.1t-.3.3q-.1.2-.1.5 0 .4.2.7zm2.9 2.3v-.8h.7v.8zm3.8-.1q-.3.1-.8.1t-.9-.2q-.4-.3-.6-.8-.2-.5-.2-1.1 0-.7.2-1.3.2-.5.6-.8.4-.2.9-.2.4 0 .7.1.3.1.5.4.3.3.3.6h-.6q-.1-.3-.3-.4-.2-.2-.6-.2-.3 0-.6.2-.2.2-.3.6-.1.4-.1.9.1-.2.3-.3.1-.2.3-.2.3-.1.5-.1.4 0 .8.1.3.2.5.5.1.3.1.8 0 .4-.1.7-.2.4-.6.6zm-.4-.5q.2-.1.3-.3.2-.2.2-.5t-.2-.5q-.1-.2-.3-.3-.2-.1-.4-.1-.3 0-.5.1t-.3.3q-.1.1-.1.3 0 .4.1.6.1.2.3.4.2.1.5.1.2 0 .4-.1zm3.1-3.8v4.4h-.7v-3.4h-.8v-.4q.4 0 .6-.1.2-.1.3-.2.1-.1.1-.3z" class="q"/><path d="M236.1 131.2c0-2.2 1.8-4 4-4h71.7c2.2 0 4 1.8 4 4v14.3c0 2.2-1.8 4-4 4h-71.7c-2.2 0-4-1.8-4-4z" class="o"/><path fill-rule="evenodd" d="M259.4 134.5v1.1h-.3v-2.4h.3v.9l.1-.1q.1-.1.2-.1h.5l.2.2q.1.1.1.3v1.2h-.3v-1.2q0-.1-.1-.2h-.5q-.1 0-.1.1-.1.1-.1.2zm-2.1 1q-.3-.2-.4-.5-.1-.2-.1-.6 0-.4.1-.7.1-.2.4-.4.2-.1.5-.1t.5.1q.2.1.3.3.1.1.1.4h-.4v-.3l-.2-.2h-.3q-.2 0-.3.1-.2.1-.3.3v.5q0 .5.1.7.2.2.5.2.2 0 .3-.1.1 0 .2-.1v-.3h.4q0 .2-.1.3 0 .2-.1.3-.1.1-.3.1-.2.1-.4.1-.3 0-.5-.1zm-14.8-.5-.3.6h-.3l.8-2.4h.4l.8 2.4h-.3l-.2-.6zm.1-.4h.7l-.4-1zm2 .8q-.2-.1-.3-.3-.1-.2-.1-.4 0-.3.1-.5t.3-.3q.1-.1.4-.1.2 0 .3.1.2 0 .3.2.1.1.1.3h-.3q0-.1-.1-.2 0-.1-.1-.1h-.2q-.2 0-.3.1-.2.2-.2.5 0 .2.2.4.1.2.3.2.1 0 .2-.1.1 0 .1-.1l.1-.1h.3q0 .1-.1.3-.1.1-.3.2h-.3q-.2 0-.4-.1zm2.4.1h-.3q-.2 0-.4-.1t-.3-.3q-.1-.2-.1-.4 0-.3.1-.5t.3-.3q.1-.1.4-.1.2 0 .3.1.2 0 .3.2.1.1.1.3h-.3q0-.1-.1-.2 0-.1-.1-.1h-.2q-.2 0-.3.1-.2.2-.2.5 0 .2.2.4.1.2.3.2.1 0 .2-.1.1 0 .1-.1l.1-.1h.3q0 .1-.1.3-.1.1-.3.2zm1-.1q-.2-.1-.3-.3-.1-.2-.1-.4 0-.3.1-.5t.3-.3q.1-.1.4-.1.2 0 .4.1t.3.3q.1.2.1.5 0 .2-.1.4t-.3.3q-.2.1-.4.1t-.4-.1zm.1-.2q.1.1.3.1.1 0 .2-.1l.2-.2v-.7l-.2-.2q-.1-.1-.2-.1-.2 0-.2.1l-.2.2v.7q0 .1.1.2zm1.7.3q-.1 0-.2-.1t-.1-.2-.1-.2v-1.2h.4v1.1q0 .2.1.3.1.1.3.1.1 0 .2-.1t.1-.3v-1.1h.4v1.7h-.3v-.3q0 .1-.1.2t-.2.1h-.5zm1.8-1.1v1.1h-.3v-1.7h.3v.3q.1-.1.1-.2.1 0 .2-.1h.3q.1 0 .2.1.2 0 .3.2V135.5h-.3v-1.1q0-.2-.1-.2-.1-.1-.3-.1h-.1q-.1 0-.2.1t-.1.2zm1.8 1.1q-.1-.1-.1-.2-.1-.1-.1-.2v-1h-.2v-.3h.2l.1-.5h.3v.5h.4v.3h-.4v1.1h.4v.3H253.4zm2.3-2.4v2.4h-.3v-1.8h-.5v-.3h.3q.2 0 .2-.1.1-.1.1-.2zm5.6 2.3q-.2-.1-.3-.3-.1-.2-.1-.4 0-.3.1-.5t.2-.3q.2-.1.5-.1.2 0 .4.1.1.1.2.3.1.2.1.4v.1h-1.2q0 .2.1.3 0 .1.1.2t.3.1q.1 0 .2-.1l.2-.2h.3q0 .2-.1.3-.1.1-.3.2h-.3q-.3 0-.4-.1zm-.1-.9h.9q0-.1-.1-.2 0-.1-.1-.2t-.2-.1q-.2 0-.3.1-.1.1-.1.2-.1.1-.1.2zm1.8.9q-.2-.1-.3-.3-.1-.2-.1-.4 0-.3.1-.5t.3-.3q.2-.1.4-.1t.4.1q.1 0 .2.2.1.1.1.3h-.3q0-.1-.1-.2 0-.1-.1-.1h-.2q-.2 0-.3.1-.1.2-.1.5 0 .2.1.4t.3.2q.1 0 .2-.1.1 0 .1-.1l.1-.1h.3q0 .1-.1.3l-.2.2h-.4q-.2 0-.4-.1zm1.8-.4v.5h-.4v-2.4h.4v1.5l.7-.8h.4l-.6.7.7 1h-.4l-.5-.8zm1.5-1.5v-.4h.3v.4zm.4.3v1.7h-.4v-1.7zm.5 1.7v-1.7h.3v.2q.1 0 .1-.1.1 0 .2-.1h.5q.2.1.2.2.1.2.1.4v1.1h-.3v-1.1q0-.2-.1-.3h-.5q-.1 0-.1.1-.1.1-.1.2v1.1zm3.2.4q-.2.1-.6.1-.4 0-.6-.1-.3-.1-.3-.3 0-.1.1-.2l.1-.1h.1l.1-.1h-.1q-.1 0-.1-.1v-.1q0-.1.1-.1 0-.1.2-.1-.2-.1-.3-.2v-.3q0-.2.1-.3 0-.1.2-.2h.7q.1 0 .2.1h.1l.1-.1h.1l.1-.1v.3l-.3.1q.1 0 .1.1v.1q0 .1-.1.3l-.2.2h-.5q-.2 0-.2.1h-.1q0 .1.1.1H270.1l.4.2q.1.1.1.3 0 .2-.2.4zm-.3-1.4q.1 0 .1-.2 0-.1-.1-.2t-.3-.1q-.2 0-.3.1-.1.1-.1.2 0 .2.1.2.1.1.3.1.2 0 .3-.1zm-.7 1.3h.8q.1-.1.1-.2t-.1-.2l-.2-.1H269.4q0 .1-.1.1v.2q0 .1.1.2z" class="p"/><path fill-rule="evenodd" d="M244.1 143v.6h-.6v-.6h-.1q-.4 0-.8-.2-.4-.3-.5-.9l.7-.1q.1.4.3.5.3.2.7.2.3 0 .5-.1.2 0 .3-.2.1-.1.1-.3 0-.3-.1-.5-.2-.1-.6-.2l-.7-.2q-.5-.1-.8-.4-.3-.3-.3-.7 0-.4.2-.7.2-.3.6-.5h.1q.2-.1.4-.1v-.6h.6v.6h.1q.2 0 .4.2.4.1.5.4.2.3.2.6l-.6.1q-.1-.4-.3-.6-.2-.2-.6-.2-.1 0-.3.1-.2 0-.3.1l-.2.2q-.1.1-.1.3 0 .2.2.4.1.1.5.2l.8.2q.5.2.8.5.2.3.2.8 0 .3-.2.6t-.5.4h-.2q-.1.1-.3.1zm4.4-.1q-.4.2-.9.2t-.8-.2q-.4-.2-.6-.4-.2-.3-.2-.7 0-.3.1-.5t.3-.4l.4-.2q-.3-.1-.5-.3-.2-.3-.2-.6 0-.4.2-.7.2-.3.6-.4.3-.1.7-.1.5 0 .8.1.3.1.5.4.2.3.2.7 0 .3-.2.6-.1.2-.4.3l.4.2q.2.2.3.4.1.2.1.5 0 .4-.2.7-.2.2-.6.4zm-.3-2.6q.3-.2.3-.6 0-.3-.3-.5-.2-.2-.6-.2-.3 0-.6.2-.2.2-.2.5 0 .4.2.6.3.2.6.2.4 0 .6-.2zm-1.3 2q.3.2.7.2.5 0 .8-.2.2-.2.2-.5 0-.2-.1-.4t-.3-.3q-.3-.1-.6-.1t-.5.1q-.2.1-.3.3-.2.2-.2.4 0 .3.3.5zm3.7.6q-.4-.1-.6-.4-.2-.3-.2-.6h.6q.1.3.3.4.2.2.5.2.4 0 .7-.2.2-.2.4-.5.1-.4.1-1.1-.1.2-.3.4-.1.2-.4.3h-.4q-.5 0-.8-.1-.3-.2-.5-.5t-.2-.8q0-.4.2-.7.2-.4.5-.5.4-.2.8-.2.5 0 .9.2.4.3.6.8.2.5.2 1.1 0 .8-.2 1.3t-.6.8q-.4.3-.9.3-.4 0-.7-.2zm.1-2.2q.2.2.6.2.3 0 .5-.1t.3-.3q.1-.1.1-.3 0-.4-.1-.6-.1-.3-.3-.4-.2-.1-.5-.1-.2 0-.4.1t-.3.3q-.1.2-.1.5 0 .4.2.7zm3.6 2.2q-.4-.1-.6-.4-.2-.3-.2-.6h.6q.1.3.3.4.2.2.5.2.4 0 .7-.2.2-.2.4-.5.1-.4.1-1.1-.1.2-.3.4-.1.2-.4.3h-.5q-.4 0-.7-.1-.3-.2-.5-.5t-.2-.8q0-.4.2-.7.2-.4.5-.5.3-.2.8-.2t.9.2q.4.3.6.8.2.5.2 1.1 0 .8-.2 1.3t-.6.8q-.4.3-.9.3-.4 0-.7-.2zm.1-2.2q.2.2.6.2.3 0 .5-.1t.3-.3q.1-.1.1-.3 0-.4-.1-.6-.1-.3-.3-.4-.2-.1-.5-.1-.2 0-.4.1t-.3.3q-.1.2-.1.5 0 .4.2.7zm2.8 2.3v-.8h.8v.8zm2.7-4.4v4.4h-.6v-3.4h-.9v-.4q.4 0 .7-.1.2-.1.3-.2.1-.1.1-.3zm2.9 4.4v-1.1h-2v-.6l2-2.7h.7v2.8h.7v.5h-.7v1.1zm-1.5-1.6h1.4v-2z" class="q"/><path d="M236.1 157.2c0-2.2 1.8-4 4-4h71.7c2.2 0 4 1.8 4 4v14.3c0 2.2-1.8 4-4 4h-71.7c-2.2 0-4-1.8-4-4z" class="o"/><path fill-rule="evenodd" d="M254.9 161.6v-.6q.1-.2.2-.3.1-.1.2-.1.2-.1.3-.2.1-.1.2-.1.2-.1.2-.2.1-.1.1-.2 0-.2-.1-.3-.1-.1-.4-.1-.2 0-.3.1-.1.1-.2.3h-.3q0-.2.1-.3.1-.2.3-.3.2-.1.5-.1.2 0 .4.1t.3.2q.1.2.1.4 0 .1-.1.3l-.2.2-.2.2q-.2 0-.3.1-.1.1-.2.1l-.2.2q-.1.1-.1.2v.1h1.3v.3zm-13 0 .8-2.4h.4l.9 2.4h-.4l-.2-.6h-.9l-.3.6zm1.1-2-.4 1h.8zm2.3 2q-.2.1-.4.1t-.4-.1q-.2-.1-.3-.3-.1-.2-.1-.5 0-.2.1-.4t.3-.4q.2-.1.4-.1t.4.1l.2.2q.1.1.1.3h-.3q0-.1-.1-.1 0-.1-.1-.1-.1-.1-.2-.1-.2 0-.3.2-.1.1-.1.4 0 .3.1.5.1.1.3.1h.2q.1-.1.2-.1v-.2h.3q0 .2-.1.3l-.2.2zm.9 0q-.2-.1-.3-.3-.1-.2-.1-.5 0-.2.1-.4t.3-.4q.2-.1.4-.1t.4.1l.2.2q.1.1.1.3h-.3q0-.1-.1-.1 0-.1-.1-.1-.1-.1-.2-.1-.2 0-.3.2-.1.1-.1.4 0 .3.1.5.1.1.3.1h.2q.1-.1.2-.1v-.2h.3q0 .2-.1.3l-.2.2q-.2.1-.4.1t-.4-.1zm2.5 0q-.1.1-.4.1-.2 0-.4-.1t-.3-.3q-.1-.2-.1-.5 0-.2.1-.4t.3-.4q.2-.1.4-.1.3 0 .4.1.2.1.3.3.1.2.1.5t-.1.5q-.1.2-.3.3zm-.1-.3q.1 0 .1-.2.1-.1.1-.3 0-.2-.1-.3 0-.1-.1-.2t-.3-.1q-.1 0-.2.1-.1 0-.2.2v.6l.2.2q.1.1.2.1.2 0 .3-.1zm1.6.3q-.1.1-.2.1t-.2-.1-.2-.1-.2-.1V160h.3v1.1q0 .1.1.2t.3.1q.2 0 .3-.1.1-.1.1-.2V160h.3v1.6h-.2l-.1-.3q0 .2-.1.2-.1.1-.2.1zm1 0V160h.4v.2q0-.1.1-.1.1-.1.2-.1.1-.1.2-.1t.3.1l.2.2q.1.1.1.3v1.1h-.4v-1q0-.2-.1-.3-.1-.1-.2-.1t-.2.1-.2.1V161.6zm2.5.1h-.1q-.2 0-.3-.1-.1 0-.1-.1-.1-.1-.1-.3v-1h-.3v-.2h.3l.1-.5h.3v.5h.3v.2h-.3V161.4H253.8v.2l-.1.1zm5.1-.1q-.2.1-.4.1t-.4-.1q-.1 0-.3-.1l-.2-.2q-.1-.1-.1-.3h.4q0 .1.1.2l.2.2h.5q.2-.1.2-.2.1 0 .1-.2v-.1l-.2-.2h-.2l-.4-.1q-.3-.1-.5-.2-.1-.2-.1-.4t.1-.4q.1-.2.3-.2.2-.1.4-.1.3 0 .5.1t.3.2q.1.2.1.4h-.3q0-.2-.1-.3-.1-.1-.2-.1h-.4q-.1 0-.2.1-.1 0-.1.1V160.1q.1.1.3.2h.5q.2.1.3.2.1 0 .1.1.1.1.1.2.1.1.1.2 0 .2-.2.4-.1.1-.3.2zm1 0q-.1 0-.2-.1-.1-.2-.1-.3 0-.3.2-.4.2-.2.7-.2h.2v-.1q0-.2-.1-.2 0-.1-.2-.1h-.3q-.1.1-.1.2h-.3q0-.1.1-.2l.2-.2q.2-.1.4-.1t.4.1l.2.2q.1.1.1.3v1.1h-.3l-.1-.3q-.1.2-.2.3-.1.1-.3.1-.2 0-.3-.1zm.1-.2h.4q.1 0 .2-.1l.1-.1v-.4h-.2q-.2 0-.3.1-.1 0-.2.1v.4zm1.9.2-.6-1.6h.3l.4 1.2.5-1.2h.3l-.6 1.6zm1.5-2.3v.3h-.3v-.3zm-.4 2.3V160h.3v1.6zm1.2-1.1v1.1h-.3V160h.3v.2q0-.1.1-.1.1-.1.2-.1.1-.1.2-.1.2 0 .3.1l.2.2q.1.1.1.3v1.1h-.4v-1q0-.2-.1-.3 0-.1-.2-.1-.1 0-.2.1-.1 0-.1.1-.1 0-.1.1zm1.6 1.6q-.2-.1-.2-.3v-.2l.1-.1h.1l.1-.1h-.1l-.1-.1v-.1q0-.1.1-.2l.2-.1q-.2 0-.2-.2-.1-.1-.1-.2 0-.2.1-.3l.2-.2q.2-.1.4-.1t.3.1q.1 0 .2.1l.1-.1h.1q.1 0 .2-.1h.1v.3l-.3.1v.2q0 .1-.1.2 0 .2-.2.2-.2.1-.4.1H266l-.1.1q0 .1.1.1H266.6q.3 0 .4.2.2.1.2.3 0 .2-.3.4-.2.1-.6.1-.4 0-.6-.1zm.3-1.4q.1.1.3.1.2 0 .3-.1.1-.1.1-.2 0-.2-.1-.3-.1-.1-.3-.1-.2 0-.3.1-.1.1-.1.3 0 .1.1.2zm.7 1.2q.1 0 .1-.2 0-.1-.1-.1 0-.1-.2-.1H265.9l-.1.1v.1q0 .2.1.2.2.1.5.1.2 0 .3-.1zm1.8-.3q-.2.1-.4.1t-.3-.1-.3-.1q-.1-.2-.1-.4h.3q0 .1.1.2l.1.1h.5q.1-.1.1-.2t-.1-.1-.1-.1l-.4-.1q-.2 0-.3-.2-.1-.1-.1-.3v-.2q.1-.1.3-.2.1-.1.3-.1.3 0 .5.2.1.1.1.3h-.3q0-.1-.1-.2h-.4q-.1.1-.1.2v.2h.3l.3.1q.1 0 .2.1l.1.1q0 .1.1.1v.2q0 .1-.1.2-.1.2-.2.2z" class="p"/><path fill-rule="evenodd" d="M244.1 169v.6h-.6v-.6h-.1q-.4 0-.8-.2-.4-.3-.5-.9l.7-.1q.1.4.3.5.3.2.7.2.3 0 .5-.1.2 0 .3-.2.1-.1.1-.3 0-.3-.1-.5-.2-.1-.6-.2l-.7-.2q-.5-.1-.8-.4-.3-.3-.3-.7 0-.4.2-.7.2-.3.6-.5h.1q.2-.1.4-.1v-.6h.6v.6h.1q.2 0 .4.2.4.1.5.4.2.3.2.6l-.6.1q-.1-.4-.3-.6-.2-.2-.6-.2-.1 0-.3.1-.2 0-.3.1l-.2.2q-.1.1-.1.3 0 .2.2.4.1.1.5.2l.8.2q.5.2.8.5.2.3.2.8 0 .3-.2.6t-.5.4h-.2q-.1.1-.3.1zm3.5-.7q-.1.4-.2.7h-.7q.1-.3.2-.7.1-.5.3-1 .2-.5.5-1 .3-.6.7-1.1h-2.5v-.6h3.2v.6q-.3.3-.5.7l-.4.8-.4.8q-.1.5-.2.8zm3.8.7v-1.1h-2v-.6l2-2.7h.6v2.8h.7v.5h-.7v1.1zm-1.4-1.6h1.4v-2zm3.2 2.5.3-.8h-.3v-.7h.8v.6l-.6.9zm2.9-5.2v4.4h-.6v-3.4h-.8v-.4q.3 0 .6-.1.2-.1.3-.2.1-.1.1-.3zm1.7 4.3q-.3-.1-.5-.4-.2-.3-.3-.6h.6q.1.3.3.4.3.2.6.2t.6-.2q.3-.2.4-.6.1-.4.1-1l-.2.4q-.2.2-.4.2-.2.1-.5.1-.4 0-.8-.1-.3-.2-.5-.5t-.2-.8q0-.4.2-.7.2-.4.5-.6.4-.1.9-.1t.9.2q.3.3.5.8.3.4.3 1.1 0 .8-.3 1.3-.2.5-.5.8-.4.2-1 .2-.4 0-.7-.1zm.1-2.2q.3.2.7.2.2 0 .4-.1t.3-.3q.2-.1.2-.3 0-.4-.1-.6-.1-.3-.3-.4-.2-.1-.5-.1t-.5.1q-.2.1-.3.3-.1.2-.1.5 0 .4.2.7zm3.6 2.2q-.3-.1-.5-.4-.3-.3-.3-.6h.6q.1.3.3.4.2.2.6.2.3 0 .6-.2t.4-.6q.1-.4.1-1l-.2.4q-.2.2-.4.2-.2.1-.5.1-.4 0-.8-.1-.3-.2-.5-.5t-.2-.8q0-.4.2-.7.2-.4.5-.6.4-.1.9-.1t.9.2q.3.3.5.8.2.4.2 1.1 0 .8-.2 1.3t-.6.8q-.4.2-.9.2-.4 0-.7-.1zm.1-2.2q.3.2.7.2.2 0 .4-.1t.3-.3q.2-.1.2-.3 0-.4-.1-.6-.2-.3-.4-.4-.2-.1-.4-.1-.3 0-.5.1t-.3.3q-.1.2-.1.5 0 .4.2.7zm2.9 2.3v-.8h.7v.8zm3.8-.1q-.3.1-.8.1t-.9-.2q-.4-.3-.6-.8-.2-.5-.2-1.1 0-.7.2-1.3.2-.5.6-.8.4-.2.9-.2.4 0 .7.1.3.1.5.4.3.3.3.6h-.6q-.1-.3-.3-.4-.2-.2-.6-.2-.3 0-.6.2-.2.2-.3.6-.1.4-.1.9.1-.2.3-.3.1-.2.3-.2.3-.1.5-.1.4 0 .8.1.3.2.5.5.1.3.1.8 0 .4-.1.7-.2.4-.6.6zm-.4-.5q.2-.1.3-.3.2-.2.2-.5t-.2-.5q-.1-.2-.3-.3-.2-.1-.4-.1-.3 0-.5.1t-.3.3q-.1.1-.1.3 0 .4.1.6.1.2.3.4.2.1.5.1.2 0 .4-.1zm3.1-3.8v4.4h-.7v-3.4h-.8v-.4q.4 0 .6-.1.2-.1.3-.2.1-.1.1-.3z" class="q"/><path d="M236.1 79.2c0-2.2 1.8-4 4-4h71.7c2.2 0 4 1.8 4 4v14.3c0 2.2-1.8 4-4 4h-71.7c-2.2 0-4-1.8-4-4z" class="o"/><path fill-rule="evenodd" d="M260 82.5v1.1h-.3v-2.4h.3v.9q.1 0 .1-.1.1 0 .2-.1h.5q.2.1.3.2v1.5h-.3v-1.2q0-.1-.1-.2h-.5l-.1.1q-.1.1-.1.2zm-3.5.8v.3h-1.6V83q.1-.2.2-.3.1-.1.2-.1.2-.1.3-.2.1-.1.2-.1.2-.1.2-.2.1-.1.1-.2 0-.2-.1-.3-.1-.1-.4-.1-.2 0-.3.1-.1.1-.2.3h-.3q0-.2.1-.3.1-.2.3-.3.2-.1.5-.1.2 0 .4.1t.3.2q.1.2.1.4 0 .1-.1.3l-.2.2-.2.2q-.2 0-.3.1-.1.1-.2.1l-.2.2q-.1.1-.1.2v.1zm-14-.3-.2.6h-.4l.9-2.4h.4l.8 2.4h-.3l-.2-.6zm0-.4h.8l-.4-1zm2 .8q-.2-.1-.3-.3-.1-.2-.1-.4 0-.3.1-.5t.2-.3q.2-.1.5-.1.2 0 .3.1.1 0 .2.2.1.1.2.3h-.3q-.1-.1-.1-.2l-.1-.1h-.2q-.2 0-.4.1-.1.2-.1.5 0 .2.1.4.2.2.4.2.1 0 .2-.1l.1-.1q0-.1.1-.1h.2q0 .1-.1.3l-.2.2h-.3q-.3 0-.4-.1zm2.4.1h-.3q-.3 0-.4-.1-.2-.1-.3-.3-.1-.2-.1-.4 0-.3.1-.5t.2-.3q.2-.1.5-.1.2 0 .3.1.1 0 .2.2.1.1.2.3h-.3q-.1-.1-.1-.2l-.1-.1h-.2q-.2 0-.4.1-.1.2-.1.5 0 .2.1.4.2.2.4.2.1 0 .2-.1l.1-.1q0-.1.1-.1h.2q0 .1-.1.3l-.2.2zm1-.1q-.2-.1-.3-.3-.1-.2-.1-.4 0-.3.1-.5t.2-.3q.2-.1.5-.1.2 0 .4.1t.2.3q.1.2.1.5v.4q-.1.2-.3.3-.2.1-.4.1-.3 0-.4-.1zm.1-.2q.1.1.3.1.1 0 .2-.1l.2-.2v-.7l-.2-.2q-.1-.1-.2-.1-.2 0-.3.1-.1.1-.1.2-.1.2-.1.4 0 .1.1.3 0 .1.1.2zm1.7.3q-.1 0-.2-.1t-.1-.2-.1-.2v-1.2h.4v1.1q0 .2.1.3 0 .1.2.1t.3-.1q.1-.1.1-.3v-1.1h.4v1.7h-.3v-.3l-.2.2q0 .1-.1.1h-.5zm1.8-1.1v1.1h-.3v-1.7h.3v.3q.1-.1.1-.2.1 0 .2-.1h.2q.2 0 .3.1.2 0 .2.2.1.1.1.3v1.1h-.3v-1.1q0-.2-.1-.2-.1-.1-.3-.1h-.2q-.1 0-.1.1-.1.1-.1.2zm1.8 1.1-.2-.2v-1.2h-.3v-.3h.3l.1-.5h.3v.5h.3v.3h-.3v1.1H253.8v.3h-.5zm4.6-.1q-.3-.2-.4-.4-.1-.3-.1-.7 0-.4.1-.6.1-.3.4-.4.2-.2.5-.2t.5.1q.2.1.3.3.1.2.1.4h-.3q-.1-.1-.1-.3-.1-.1-.2-.1-.1-.1-.3-.1-.2 0-.3.1-.2.1-.2.3-.1.2-.1.5 0 .5.1.7.2.2.5.2h.3l.2-.2q0-.1.1-.3h.3q0 .2-.1.3 0 .2-.1.3-.1.1-.3.2h-.4q-.3 0-.5-.1zm3.9 0q-.2-.1-.3-.3-.1-.2-.1-.4 0-.3.1-.5t.3-.3q.2-.1.4-.1t.4.1q.2.1.3.3.1.2.1.4v.1h-1.2v.3l.2.2q.1.1.2.1.2 0 .3-.1.1-.1.1-.2h.3q0 .2-.1.3-.1.1-.3.2h-.3q-.2 0-.4-.1zm0-.9h.8v-.2l-.2-.2q-.1-.1-.2-.1t-.2.1l-.2.2v.2zm1.8.9q-.2-.1-.3-.3-.1-.2-.1-.4 0-.3.1-.5t.3-.3q.1-.1.4-.1.2 0 .3.1.2 0 .2.2.1.1.2.3h-.3q-.1-.1-.1-.2l-.1-.1h-.2q-.2 0-.4.1-.1.2-.1.5 0 .2.1.4.2.2.4.2.1 0 .2-.1l.1-.1q0-.1.1-.1h.3q-.1.1-.2.3l-.2.2h-.3q-.3 0-.4-.1zm1.7-.4v.5h-.3v-2.4h.3v1.5l.8-.8h.4l-.6.7.6 1h-.4l-.5-.8zm1.5-1.5v-.4h.4v.4zm.3.3v1.7h-.3v-1.7zm.4 1.7v-1.7h.4v.2l.1-.1.1-.1h.6l.2.2q.1.2.1.4v1.1h-.4v-1.1q0-.2-.1-.3h-.4q-.1 0-.2.1v1.3zm3.2.4q-.2.1-.7.1-.4 0-.6-.1-.2-.1-.2-.3v-.2q.1 0 .1-.1h.1q.1 0 .1-.1h-.1v-.1q-.1 0-.1-.1t.1-.1q.1-.1.2-.1l-.2-.2q-.1-.2-.1-.3 0-.2.1-.3.1-.1.3-.2H270.3q.1 0 .2.1h.1q.1 0 .2-.1h.1l.1-.1v.3l-.3.1v.5q-.1.1-.3.2h-.5q-.1 0-.2.1h-.1q0 .1.1.1H270.3q.3.1.4.2.2.1.2.3 0 .2-.2.4zm-.4-1.4q.1 0 .1-.2 0-.1-.1-.2t-.3-.1q-.1 0-.2.1t-.1.2q0 .2.1.2.1.1.2.1.2 0 .3-.1zm-.6 1.3h.7q.1-.1.1-.2v-.2q-.1 0-.2-.1h-.6l-.1.1q-.1.1-.1.2t.2.2z" class="p"/><path fill-rule="evenodd" d="M243.5 91.6V91h-.1q-.4 0-.8-.2-.4-.3-.5-.9l.7-.1q.1.4.3.5.3.2.7.2.3 0 .5-.1.2 0 .3-.2.1-.1.1-.3 0-.3-.1-.5-.2-.1-.6-.2l-.7-.2q-.5-.1-.8-.4-.3-.3-.3-.7 0-.4.2-.7.2-.3.6-.5h.1q.2-.1.4-.1V86h.6v.6h.1q.2 0 .4.2.4.1.5.4.2.3.2.6l-.6.1q-.1-.4-.3-.6-.2-.2-.6-.2-.1 0-.3.1-.2 0-.3.1l-.2.2q-.1.1-.1.3 0 .2.2.4.1.1.5.2l.8.2q.5.2.8.5.2.3.2.8 0 .3-.2.6t-.5.4h-.2q-.1.1-.3.1h-.1v.6zm3.2-.6v-3.4h-.8v-.4q.4 0 .6-.1.2 0 .3-.2.1-.1.2-.3h.4V91zm2.4-.1-.6.9h-.2l.3-.8h-.3v-.7h.8zm1.4 0q-.3-.1-.5-.4-.3-.3-.3-.6h.6q.1.3.3.4.2.2.6.2.3 0 .6-.2t.4-.6q.1-.4.1-1l-.2.4-.4.2q-.2.1-.5.1-.4 0-.8-.1-.3-.2-.5-.5t-.2-.8q0-.4.2-.7.2-.4.5-.6.4-.2.9-.2t.9.3q.3.3.5.8.2.4.2 1.1 0 .8-.2 1.3t-.6.8q-.4.2-.9.2-.4 0-.7-.1zm.1-2.2q.3.2.7.2.2 0 .4-.1t.3-.3q.2-.2.2-.3 0-.4-.1-.6-.2-.3-.4-.4-.2-.1-.4-.1-.3 0-.5.1t-.3.3q-.1.2-.1.5 0 .4.2.7zm3.6 2.3v-3.4h-.8v-.4q.4 0 .6-.1.2-.1.3-.2.1-.1.1-.3h.5V91zm3-4.4V91h-.6v-3.4h-.8v-.4q.3 0 .6-.1.2-.1.3-.2.1-.1.1-.3zm.9 4.4v-.8h.8v.8zm3.9-1.1V91h-.6v-1.1h-2.1v-.6l2.1-2.7h.6v2.7h.7v.6zm-.6-2.5-1.4 1.9h1.4zm3.2-.8V91h-.7v-3.4h-.8v-.4q.4 0 .6-.1.2-.1.3-.2.1-.1.1-.3z" class="q"/><path d="M236.1 105.2c0-2.2 1.8-4 4-4h71.7c2.2 0 4 1.8 4 4v14.3c0 2.2-1.8 4-4 4h-71.7c-2.2 0-4-1.8-4-4z" class="o"/><path fill-rule="evenodd" d="M254.9 109.6v-.6q.1-.2.2-.3.1-.1.2-.1.2-.1.3-.2.1-.1.2-.1.2-.1.2-.2.1-.1.1-.2 0-.2-.1-.3-.1-.1-.4-.1-.2 0-.3.1-.1.1-.2.3h-.3q0-.2.1-.3.1-.2.3-.3.2-.1.5-.1.2 0 .4.1t.3.2q.1.2.1.4 0 .1-.1.3l-.2.2-.2.2q-.2 0-.3.1-.1.1-.2.1l-.2.2q-.1.1-.1.2v.1h1.3v.3zm-13 0 .8-2.4h.4l.9 2.4h-.4l-.2-.6h-.9l-.3.6zm1.1-2-.4 1h.8zm2.3 2q-.2.1-.4.1t-.4-.1q-.2-.1-.3-.3-.1-.2-.1-.5 0-.2.1-.4t.3-.4q.2-.1.4-.1t.4.1l.2.2q.1.1.1.3h-.3q0-.1-.1-.1 0-.1-.1-.1-.1-.1-.2-.1-.2 0-.3.2-.1.1-.1.4 0 .3.1.5.1.1.3.1h.2q.1-.1.2-.1v-.2h.3q0 .2-.1.3l-.2.2zm.9 0q-.2-.1-.3-.3-.1-.2-.1-.5 0-.2.1-.4t.3-.4q.2-.1.4-.1t.4.1l.2.2q.1.1.1.3h-.3q0-.1-.1-.1 0-.1-.1-.1-.1-.1-.2-.1-.2 0-.3.2-.1.1-.1.4 0 .3.1.5.1.1.3.1h.2q.1-.1.2-.1v-.2h.3q0 .2-.1.3l-.2.2q-.2.1-.4.1t-.4-.1zm2.5 0q-.1.1-.4.1-.2 0-.4-.1t-.3-.3q-.1-.2-.1-.5 0-.2.1-.4t.3-.4q.2-.1.4-.1.3 0 .4.1.2.1.3.3.1.2.1.5t-.1.5q-.1.2-.3.3zm-.1-.3q.1 0 .1-.2.1-.1.1-.3 0-.2-.1-.3 0-.1-.1-.2t-.3-.1q-.1 0-.2.1-.1 0-.2.2v.6l.2.2q.1.1.2.1.2 0 .3-.1zm1.6.3q-.1.1-.2.1t-.2-.1-.2-.1-.2-.1V108h.3v1.1q0 .1.1.2t.3.1q.2 0 .3-.1.1-.1.1-.2V108h.3v1.6h-.2l-.1-.3q0 .2-.1.2-.1.1-.2.1zm1 0V108h.4v.2q0-.1.1-.1.1-.1.2-.1.1-.1.2-.1t.3.1l.2.2q.1.1.1.3v1.1h-.4v-1q0-.2-.1-.3-.1-.1-.2-.1t-.2.1-.2.1V109.6zm2.5.1h-.1q-.2 0-.3-.1-.1 0-.1-.1-.1-.1-.1-.3v-1h-.3v-.2h.3l.1-.5h.3v.5h.3v.2h-.3V109.4H253.8v.2l-.1.1zm5.1-.1q-.2.1-.4.1t-.4-.1q-.1 0-.3-.1l-.2-.2q-.1-.1-.1-.3h.4q0 .1.1.2l.2.2h.5q.2-.1.2-.2.1 0 .1-.2v-.1l-.2-.2h-.2l-.4-.1q-.3-.1-.5-.2-.1-.2-.1-.4t.1-.4q.1-.2.3-.2.2-.1.4-.1.3 0 .5.1t.3.2q.1.2.1.4h-.3q0-.2-.1-.3-.1-.1-.2-.1h-.4q-.1 0-.2.1-.1 0-.1.1V108.1q.1.1.3.2h.5q.2.1.3.2.1 0 .1.1.1.1.1.2.1.1.1.2 0 .2-.2.4-.1.1-.3.2zm1 0q-.1 0-.2-.1-.1-.2-.1-.3 0-.3.2-.4.2-.2.7-.2h.2v-.1q0-.2-.1-.2 0-.1-.2-.1h-.3q-.1.1-.1.2h-.3q0-.1.1-.2l.2-.2q.2-.1.4-.1t.4.1l.2.2q.1.1.1.3v1.1h-.3l-.1-.3q-.1.2-.2.3-.1.1-.3.1-.2 0-.3-.1zm.1-.2h.4q.1 0 .2-.1l.1-.1v-.4h-.2q-.2 0-.3.1-.1 0-.2.1v.4zm1.9.2-.6-1.6h.3l.4 1.2.5-1.2h.3l-.6 1.6zm1.5-2.3v.3h-.3v-.3zm-.4 2.3V108h.3v1.6zm1.2-1.1v1.1h-.3V108h.3v.2q0-.1.1-.1.1-.1.2-.1.1-.1.2-.1.2 0 .3.1l.2.2q.1.1.1.3v1.1h-.4v-1q0-.2-.1-.3 0-.1-.2-.1-.1 0-.2.1-.1 0-.1.1-.1 0-.1.1zm1.6 1.6q-.2-.1-.2-.3v-.2l.1-.1h.1l.1-.1h-.1l-.1-.1v-.1q0-.1.1-.2l.2-.1q-.2 0-.2-.2-.1-.1-.1-.2 0-.2.1-.3l.2-.2q.2-.1.4-.1t.3.1q.1 0 .2.1l.1-.1h.1q.1 0 .2-.1h.1v.3l-.3.1v.2q0 .1-.1.2 0 .2-.2.2-.2.1-.4.1H266l-.1.1q0 .1.1.1H266.6q.3 0 .4.2.2.1.2.3 0 .2-.3.4-.2.1-.6.1-.4 0-.6-.1zm.3-1.4q.1.1.3.1.2 0 .3-.1.1-.1.1-.2 0-.2-.1-.3-.1-.1-.3-.1-.2 0-.3.1-.1.1-.1.3 0 .1.1.2zm.7 1.2q.1 0 .1-.2 0-.1-.1-.1 0-.1-.2-.1H265.9l-.1.1v.1q0 .2.1.2.2.1.5.1.2 0 .3-.1zm1.8-.3q-.2.1-.4.1t-.3-.1-.3-.1q-.1-.2-.1-.4h.3q0 .1.1.2l.1.1h.5q.1-.1.1-.2t-.1-.1-.1-.1l-.4-.1q-.2 0-.3-.2-.1-.1-.1-.3v-.2q.1-.1.3-.2.1-.1.3-.1.3 0 .5.2.1.1.1.3h-.3q0-.1-.1-.2h-.4q-.1.1-.1.2v.2h.3l.3.1q.1 0 .2.1l.1.1q0 .1.1.1v.2q0 .1-.1.2-.1.2-.2.2z" class="p"/><path fill-rule="evenodd" d="M244.1 117v.6h-.6v-.6h-.1q-.4 0-.8-.2-.4-.3-.5-.9l.7-.1q.1.4.3.5.3.2.7.2.3 0 .5-.1.2 0 .3-.2.1-.1.1-.3 0-.3-.1-.5-.2-.1-.6-.2l-.7-.2q-.5-.1-.8-.4-.3-.3-.3-.7 0-.4.2-.7.2-.3.6-.5h.1q.2-.1.4-.1v-.6h.6v.6h.1q.2 0 .4.2.4.1.5.4.2.3.2.6l-.6.1q-.1-.4-.3-.6-.2-.2-.6-.2-.1 0-.3.1-.2 0-.3.1l-.2.2q-.1.1-.1.3 0 .2.2.4.1.1.5.2l.8.2q.5.2.8.5.2.3.2.8 0 .3-.2.6t-.5.4h-.2q-.1.1-.3.1zm4.9-.6v.6h-3v-.6q0-.3.2-.5.1-.3.3-.5.2-.2.4-.3.3-.1.5-.3.3-.1.5-.2.2-.2.3-.4.1-.1.1-.4 0-.3-.2-.5t-.6-.2q-.4 0-.6.2-.3.3-.3.7h-.7q.1-.4.2-.7.2-.4.6-.5.3-.2.8-.2t.8.1q.4.2.5.5.2.2.2.6 0 .4-.1.6-.1.2-.3.4-.2.2-.5.3-.2.2-.5.3l-.4.2-.3.3q-.1.2-.1.4v.1zm.9.1q-.5-.6-.5-1.7 0-.7.2-1.2t.6-.8q.3-.2.8-.2.8 0 1.2.5.4.6.4 1.7t-.4 1.7q-.4.6-1.2.6-.7 0-1.1-.6zm.4-.4q.3.4.7.4.5 0 .7-.4.2-.4.2-1.3t-.2-1.3q-.2-.4-.7-.4-.4 0-.6.4-.3.4-.3 1.3t.2 1.3zm2.8 1.7.3-.8h-.3v-.7h.8v.6l-.6.9zm4.1-1.9v1.1h-.6v-1.1h-2.1v-.6l2.1-2.7h.6v2.8h.7v.5zm-.6-2.5-1.5 2h1.5zm3.3 2.8q-.1.4-.1.7h-.7q0-.3.1-.7.1-.5.3-1 .2-.5.5-1 .3-.6.7-1.1h-2.4v-.6h3.1v.6q-.2.3-.5.7l-.4.8q-.2.4-.3.8-.2.5-.3.8zm2.9.6q-.3-.1-.6-.4-.2-.2-.3-.5l.5-.3q.1.2.3.4.1.2.3.3.3.1.5.1.5 0 .7-.2.3-.3.3-.7 0-.3-.1-.5t-.3-.3q-.3-.1-.5-.1h-.3q-.2 0-.3.1-.2.1-.3.3h-.1l-.5-.2.2-2.3h2.6v.6h-2.1l-.1 1.3q.2-.2.5-.3h.5q.4-.1.8.1.3.2.5.5t.2.8q0 .4-.2.8-.2.3-.6.5-.3.2-.8.2-.4 0-.8-.2zm3.7-.7v.8h-.8v-.8zm1 .3q-.4-.6-.4-1.7 0-.7.2-1.2t.5-.8q.4-.2.9-.2.7 0 1.1.5.4.6.4 1.7t-.4 1.7q-.4.6-1.1.6-.8 0-1.2-.6zm.5-.4q.2.4.7.4.4 0 .6-.4.2-.4.2-1.3t-.2-1.3q-.2-.4-.6-.4-.5 0-.7.4-.3.4-.3 1.3t.3 1.3zm3.1.4q-.4-.6-.4-1.7 0-.7.2-1.2t.5-.8q.4-.2.9-.2.7 0 1.1.5.5.6.4 1.7.1 1.1-.4 1.7-.4.6-1.1.6-.8 0-1.2-.6zm.5-.4q.2.4.7.4.4 0 .6-.4.3-.4.3-1.3t-.3-1.3q-.2-.4-.6-.4-.5 0-.7.4-.2.4-.2 1.3t.2 1.3z" class="q"/><path d="M230.9 153.9H321v18.6h-90.1z" class="o"/><path d="M266.3 163.4c0-3 2.5-5.5 5.6-5.5h8.3c3.1 0 5.6 2.5 5.6 5.5 0 3.1-2.5 5.6-5.6 5.6h-8.3c-3.1 0-5.6-2.5-5.6-5.6z" style="fill:url(#g21)"/><path fill-rule="evenodd" d="m277.7 161.3-2.2 4.4h-1.3l2.1-4.4z" class="o"/><path fill-rule="evenodd" d="m279.4 163-.7 1.1h-5.9l.7-1.1zM276.2 5.1l-4 7.3H270l4-7.3z" class="o"/><path fill-rule="evenodd" d="m279 5.1-4 7.3h-2.3l4-7.3z" class="t"/><path fill-rule="evenodd" d="m281.7 5.1-4 7.3h-2.2l4-7.3z" class="u"/><path fill-rule="evenodd" d="M315.7-5.3h1.6l-.8.8 1.2.8 1.7-1.7v2.6h-2.6l.8-.8h-1.9v.8h-.9l-.2.2v1l-.5-.5-.5.5v-1l-.2-.2h-1.1v-.6h-.2v-.2h-1.6l1.2-.9-.8-.8h1.4v-.1h3.4zM242-3.4q-.2.1-.5.1-.2 0-.4-.1-.2-.2-.3-.4-.1-.3-.1-.6t.1-.6q.1-.2.3-.4.2-.1.4-.1.3 0 .5.1.2.2.3.4.1.3.1.6t-.1.6q-.1.2-.3.4zm-4.7-2.1v2.2h-.4v-1.6l-.4.2-.2-.3.7-.5zm1.8 1.8v.4h-.4v-.4h-1v-.4l1-1.4h.4v1.4h.3v.4zm-.4-1.2h-.1l-.5.8h.6zm1.5.3q-.1.1-.2.1t-.2-.1q-.1 0-.1-.1 0-.2.1-.2.1-.1.2-.1t.2.1V-4.6zm-.4 1.1q-.1 0-.1-.1 0-.2.1-.2.1-.1.2-.1t.2.1V-3.5q-.1.1-.2.1t-.2-.1zm2-.3q.1-.1.1-.3.1-.1.1-.4 0-.3-.1-.5-.2-.2-.4-.2t-.3.2q-.2.2-.2.5t.1.4q0 .2.1.3.2.1.3.1.1 0 .3-.1zm2.3-1.3-1 1.8-.3-.2.9-1.6h-1v-.4h1.4z" class="o"/></g><path fill-rule="evenodd" d="M125.9 84.2H200c7.1 0 12.9 5.6 12.9 12.5v170.4c0 6.9-5.8 12.5-12.9 12.5h-74.1c-7.1 0-12.9-5.6-12.9-12.5V96.7c0-6.9 5.8-12.5 12.9-12.5z" class="a"/><path fill-rule="evenodd" d="M209.9 88.8c-1.9-1.6-5.2-3.9-9.7-3.9h-74.5c-4.5 0-7.9 2.3-9.8 3.9q4.4-4.5 9.7-4.8h74.7q5.2.3 9.6 4.8z" style="opacity:.4;fill:url(#g22)"/><path fill-rule="evenodd" d="M200.3 279.5h-74.7c-3.7-.1-6.8-1.4-9.3-4 1.9 1.5 4.9 3.2 9.3 3.2h74.6c4.5 0 7.7-2 9.6-3.5-2.6 2.8-5.8 4.2-9.5 4.3z" style="opacity:.5;fill:url(#g23)"/><path fill-rule="evenodd" d="M116.9 275.9c2.1 1.7 4.8 2.7 7.8 2.7H202c2.6 0 5-.7 7-2.1-2.2 2-5.2 3.3-8.4 3.3h-74.7c-3.6 0-6.8-1.5-9-3.9z" style="opacity:.6;fill:url(#g24)"/><path fill-rule="evenodd" d="M210.8 265.2V97.7c0-4.5-1.6-6.2-2.6-7.2-.9-1.1-1-1.6.4-.8s4.2 3.1 4.2 8v167.5c0 4.8-2.8 7.2-4.2 8-1.4.8-1.3.2-.4-.8 1-1.1 2.6-2.7 2.6-7.2z" style="opacity:.7;fill:url(#g25)"/><path fill-rule="evenodd" d="M117.6 272.4c1 1 1 1.6-.4.8s-4.2-3.2-4.2-8V97.7c0-4.9 2.8-7.2 4.2-8 1.4-.8 1.4-.3.4.8-1 1-2.6 2.7-2.6 7.2v167.5c0 4.5 1.6 6.1 2.6 7.2z" style="opacity:.7;fill:url(#g26)"/><path d="M162.8 93.1c-1 0-1.9-.8-1.9-1.8s.9-1.8 1.9-1.8c1.1 0 1.9.8 1.9 1.8s-.8 1.8-1.9 1.8z" class="g"/><path d="M162.8 93.1c-1 0-1.9-.8-1.9-1.8s.9-1.8 1.9-1.8c1.1 0 1.9.8 1.9 1.8s-.8 1.8-1.9 1.8z" style="opacity:.5"/><g style="opacity:.7"><path d="M162.8 92.7c-.8 0-1.4-.7-1.4-1.4 0-.8.6-1.4 1.4-1.4.8 0 1.5.6 1.5 1.4 0 .7-.7 1.4-1.5 1.4z" class="h"/><path d="M162.8 92.2c-.5 0-.9-.4-.9-.9s.4-.9.9-.9.9.4.9.9-.4.9-.9.9z" class="i"/><path d="M162.8 91.7c-.2 0-.4-.2-.4-.4s.2-.4.4-.4.4.2.4.4-.2.4-.4.4z" class="j"/><path d="M162.4 91.2c-.1 0-.2-.1-.2-.3 0-.1.1-.2.2-.2.2 0 .3.1.3.2 0 .2-.1.3-.3.3z" class="k"/></g><path fill-rule="evenodd" d="M157.3 91.8c1.2 2.9 3.5 3.8 4.4 3.8h2.2c1.8 0 3.6-1.7 4.4-3.8.9-2.1 2.9-2.9 3-2.9h29.3c4 0 7.4 2.6 7.4 7.2v165c0 5-5 9.5-10.3 9.5h-69.5c-5.5 0-10.3-4.5-10.3-9.5V95.7c0-3.9 3.1-6.8 7.4-6.8h28.8c.2 0 2 0 3.2 2.9z" class="l"/><g clip-path="url(#cp4)"><path d="M117.9 89H208v181.6h-90.1z" class="m"/><path d="M117.9 88.9H208v181.8h-90.1z" style="fill:url(#g27)"/><path fill-rule="evenodd" d="m163.6 170.5-10 18.3H148l10-18.3z" class="o"/><path fill-rule="evenodd" d="m170.4 170.5-10 18.3h-5.6l10.1-18.3z" class="t"/><path fill-rule="evenodd" d="m177.2 170.5-10 18.3h-5.5l10-18.3z" class="u"/><path fill-rule="evenodd" d="M202.7 94.3h-1.1v1.2l-.8-.9-.4-.3h-1v-.7h-.2V93l-.4-.4-.8-.8h1.4v-.2h3.3zm3.8-2.7v2.7h-2.7zM129 93.6l-.4.2q-.3-.1-.5-.2t-.3-.4q-.1-.3-.1-.6t.1-.5q.1-.3.3-.4.2-.2.5-.2.2 0 .4.2.2.1.3.4.1.2.1.5t-.1.6q-.1.3-.3.4zm-4.7-2v2.1h-.4v-1.6l-.4.2-.2-.3.7-.4zm1.8 1.7v.4h-.4v-.4h-1V93l1-1.4h.4v1.3h.3v.4zm-.4-1.1h-.1l-.5.7h.6zm1.5.4q-.1.1-.2.1t-.2-.1q-.1-.1-.1-.2t.1-.2q.1-.1.2-.1t.2.1v.4zm-.4 1.1q-.1-.1-.1-.2t.1-.2q.1-.1.2-.1t.2.1v.4q-.1.1-.2.1t-.2-.1zm2-.4q.1-.1.1-.2.1-.2.1-.4 0-.3-.1-.5-.2-.2-.4-.2t-.3.2q-.2.2-.2.5 0 .2.1.4 0 .1.2.2.1.1.2.1.2 0 .3-.1zm2.4-1.3-1 1.8-.4-.2.9-1.6h-1v-.4h1.5z" class="o"/></g></svg>