<svg xmlns="http://www.w3.org/2000/svg" width="375" height="424" fill="none"><g filter="url(#a)"><path fill="#2D314D" fill-rule="evenodd" d="M-33.945 68.14c-22.164 0-33.265 26.796-17.595 42.47l79.16 79.179a71.266 71.266 0 0 0 50.398 20.879h22.935a100.002 100.002 0 0 1 70.719 29.298l75.718 75.736A99.998 99.998 0 0 0 318.109 345H539.78c44.369 0 66.592-53.641 35.222-85.018l-52.835-52.848c-11.87-11.873-3.461-32.171 13.328-32.171 16.789 0 25.198-20.297 13.328-32.171L436.291 30.233a84.787 84.787 0 0 0-59.96-24.84H258.012a97.946 97.946 0 0 1-69.267-28.697l-2.377-2.377A89.833 89.833 0 0 0 122.839-52H-9.059c-31.349 0-47.05 37.9-24.886 60.07l17.595 17.599c15.67 15.674 4.57 42.47-17.595 42.47Z" clip-rule="evenodd"/></g><path fill="url(#b)" fill-rule="evenodd" d="M180.055 69.14c-22.164 0-33.265 26.796-17.595 42.47l79.161 79.179a71.265 71.265 0 0 0 50.397 20.879h22.935a100.002 100.002 0 0 1 70.719 29.298l75.718 75.736A99.998 99.998 0 0 0 532.109 346H753.78c44.369 0 66.592-53.641 35.222-85.018l-52.835-52.848c-11.87-11.873-3.461-32.171 13.328-32.171 16.789 0 25.198-20.297 13.328-32.171L650.291 31.233a84.787 84.787 0 0 0-59.96-24.84H472.012a97.946 97.946 0 0 1-69.267-28.697l-2.377-2.377A89.833 89.833 0 0 0 336.839-51H204.941c-31.349 0-47.05 37.9-24.886 60.07l17.595 17.599c15.671 15.674 4.569 42.47-17.595 42.47Z" clip-rule="evenodd"/><defs><linearGradient id="b" x1="-255.418" x2="70.527" y1="146.667" y2="765.717" gradientUnits="userSpaceOnUse"><stop stop-color="#33D35E"/><stop offset="1" stop-color="#2AB6D9"/></linearGradient><filter id="a" width="802.56" height="551" x="-135.875" y="-127" color-interpolation-filters="sRGB" filterUnits="userSpaceOnUse"><feFlood flood-opacity="0" result="BackgroundImageFix"/><feColorMatrix in="SourceAlpha" result="hardAlpha" values="0 0 0 0 0 0 0 0 0 0 0 0 0 0 0 0 0 0 127 0"/><feOffset dy="2"/><feGaussianBlur stdDeviation="38.5"/><feColorMatrix values="0 0 0 0 0 0 0 0 0 0 0 0 0 0 0 0 0 0 0.0240111 0"/><feBlend in2="BackgroundImageFix" result="effect1_dropShadow_0_2480"/><feBlend in="SourceGraphic" in2="effect1_dropShadow_0_2480" result="shape"/></filter></defs></svg>